<?xml version="1.0" encoding="UTF-8" standalone="no"?>
<!-- Created with Inkscape (http://www.inkscape.org/) -->

<svg
   id="svg5"
   version="1.1"
   viewBox="0 0 210 297"
   height="297mm"
   width="210mm"
   xml:space="preserve"
   inkscape:version="1.2.1 (9c6d41e410, 2022-07-14)"
   sodipodi:docname="MSL.svg"
   xmlns:inkscape="http://www.inkscape.org/namespaces/inkscape"
   xmlns:sodipodi="http://sodipodi.sourceforge.net/DTD/sodipodi-0.dtd"
   xmlns:xlink="http://www.w3.org/1999/xlink"
   xmlns="http://www.w3.org/2000/svg"
   xmlns:svg="http://www.w3.org/2000/svg"><sodipodi:namedview
     id="namedview7"
     pagecolor="#ffffff"
     bordercolor="#666666"
     borderopacity="1.0"
     inkscape:showpageshadow="2"
     inkscape:pageopacity="0.0"
     inkscape:pagecheckerboard="0"
     inkscape:deskcolor="#d1d1d1"
     inkscape:document-units="mm"
     showgrid="false"
     inkscape:zoom="0.89263468"
     inkscape:cx="-145.07615"
     inkscape:cy="490.68226"
     inkscape:window-width="3440"
     inkscape:window-height="1369"
     inkscape:window-x="1912"
     inkscape:window-y="-8"
     inkscape:window-maximized="1"
     inkscape:current-layer="layer1" /><defs
     id="defs2"><linearGradient
       inkscape:collect="always"
       id="linearGradient19672"><stop
         style="stop-color:#02263e;stop-opacity:1;"
         offset="0"
         id="stop19668" /><stop
         style="stop-color:#042e2d;stop-opacity:1;"
         offset="1"
         id="stop19670" /></linearGradient><linearGradient
       inkscape:collect="always"
       id="linearGradient15865"><stop
         style="stop-color:#0480cf;stop-opacity:1;"
         offset="0"
         id="stop15861" /><stop
         style="stop-color:#1d9ee3;stop-opacity:1;"
         offset="0.15231191"
         id="stop19717" /><stop
         style="stop-color:#52cbee;stop-opacity:1;"
         offset="0.73042607"
         id="stop19715" /><stop
         style="stop-color:#8afaf9;stop-opacity:1;"
         offset="1"
         id="stop15863" /></linearGradient><linearGradient
       inkscape:collect="always"
       xlink:href="#linearGradient15865"
       id="linearGradient15867"
       x1="100.71762"
       y1="249.35143"
       x2="91.220482"
       y2="190.87323"
       gradientUnits="userSpaceOnUse"
       gradientTransform="matrix(0.24187876,0,0,0.24187876,9.278906,37.438175)" /><linearGradient
       inkscape:collect="always"
       xlink:href="#linearGradient19672"
       id="linearGradient18940"
       gradientUnits="userSpaceOnUse"
       x1="271.8262"
       y1="561.62732"
       x2="194.31859"
       y2="328.04333"
       gradientTransform="matrix(0.08382838,0,0,0.08382838,11.741276,49.542459)" /><filter
       inkscape:collect="always"
       style="color-interpolation-filters:sRGB"
       id="filter19711"
       x="-0.0014835708"
       y="-0.0027202201"
       width="1.0029671"
       height="1.0054404"><feGaussianBlur
         inkscape:collect="always"
         stdDeviation="0.019299219"
         id="feGaussianBlur19713" /></filter></defs><g
     inkscape:label="Layer 1"
     inkscape:groupmode="layer"
     id="layer1"><g
       id="g19728"
       transform="translate(70.880163,59.047998)"
       inkscape:export-filename="MSL.png"
       inkscape:export-xdpi="96"
       inkscape:export-ydpi="96"><rect
         style="font-variation-settings:normal;opacity:1;fill:url(#linearGradient18940);fill-opacity:1;stroke-width:0.58102;stroke-linecap:butt;stroke-linejoin:miter;stroke-miterlimit:4;stroke-dasharray:none;stroke-dashoffset:0;stroke-opacity:1;paint-order:markers stroke fill;stop-color:#000000;stop-opacity:1"
         id="rect18938"
         width="33.866665"
         height="33.866665"
         x="17.186504"
         y="72.518669" /><path
         id="path8684-1"
         style="font-size:73.3533px;line-height:1.25;font-family:'Visitor TT1 BRK';-inkscape-font-specification:'Visitor TT1 BRK, Normal';font-variation-settings:normal;letter-spacing:0px;fill:#000000;fill-opacity:0.306333;stroke-width:0.443566;stroke-linecap:butt;stroke-linejoin:miter;stroke-miterlimit:4;stroke-dasharray:none;stroke-dashoffset:0;stroke-opacity:1;filter:url(#filter19711);stop-color:#000000"
         d="m 18.774349,81.732422 c 0,0.767578 0,1.535156 0,2.302734 10.406901,0 20.813802,0 31.220703,0 0,-0.94401 0,-1.888021 0,-2.832031 -10.406901,0 -20.813802,0 -31.220703,0 0,0.176432 0,0.352865 0,0.529297 z m 0,3.548828 c 0,3.133464 0,6.266927 0,9.400391 0.94401,0 1.88802,0 2.832031,0 0,-1.774089 0,-3.548177 0,-5.322266 0.893034,-0.287435 0.737677,0.47352 0.716797,1.1 -0.264268,0.831846 0.442887,0.692269 1.029297,0.673437 0.600911,0 1.201823,0 1.802734,0 0,-0.591145 0,-1.182291 0,-1.773437 0.892915,-0.287967 0.734677,0.475218 0.714844,1.1 0,1.407422 0,2.814844 0,4.222266 0.944661,0 1.889323,0 2.833984,0 0,-3.309896 0,-6.619792 0,-9.929688 -0.944661,0 -1.889323,0 -2.833984,0 0,0.591146 0,1.182292 0,1.773438 -0.591146,0 -1.182292,0 -1.773438,0 0,0.591797 0,1.183593 0,1.77539 -0.892915,0.287967 -0.734677,-0.475218 -0.714843,-1.1 0.264412,-0.832641 -0.441395,-0.695064 -1.029297,-0.67539 -0.894607,0.279242 -0.782727,-0.448003 -0.746094,-1.1 0.264268,-0.831847 -0.442887,-0.69227 -1.029297,-0.673438 -0.600911,0 -1.201823,0 -1.802734,0 0,0.176432 0,0.352865 0,0.529297 z m 10.644531,0 c 0,1.950521 0,3.901042 0,5.851562 2.365885,10e-7 4.731771,10e-7 7.097656,0 0.287435,0.893035 -0.47352,0.737678 -1.1,0.716797 -1.999219,0 -3.998437,0 -5.997656,0 0,0.944011 0,1.888021 0,2.832032 3.309896,0 6.619792,0 9.929687,0 0,-2.126954 0,-4.253907 0,-6.38086 -2.365234,0 -4.730468,0 -7.095703,0 -0.287435,-0.893034 0.473521,-0.737677 1.1,-0.716797 1.998568,0 3.997136,0 5.995703,0 0,-0.94401 0,-1.88802 0,-2.832031 -3.309895,0 -6.619791,0 -9.929687,0 0,0.176432 0,0.352865 0,0.529297 z m 10.646484,0 c 0,3.133464 0,6.266927 0,9.400391 3.309896,0 6.619792,0 9.929688,0 0,-0.944011 0,-1.888021 0,-2.832032 -2.365886,0 -4.731771,0 -7.097657,0 0,-2.365885 0,-4.73177 0,-7.097656 -0.94401,0 -1.88802,0 -2.832031,0 0,0.176432 0,0.352865 0,0.529297 z M 18.774349,95.925781 c 0,0.768229 0,1.536459 0,2.304688 10.406901,0 20.813802,0 31.220703,0 0,-0.944662 0,-1.889323 0,-2.833985 -10.406901,0 -20.813802,0 -31.220703,0 0,0.176433 0,0.352865 0,0.529297 z" /><path
         id="path8684"
         style="font-size:73.3533px;line-height:1.25;font-family:'Visitor TT1 BRK';-inkscape-font-specification:'Visitor TT1 BRK, Normal';font-variation-settings:normal;letter-spacing:0px;opacity:1;fill:url(#linearGradient15867);fill-opacity:1;stroke-width:0.443566;stroke-linecap:butt;stroke-linejoin:miter;stroke-miterlimit:4;stroke-dasharray:none;stroke-dashoffset:0;stroke-opacity:1;stop-color:#000000;stop-opacity:1"
         d="m 19.038587,81.467923 v 1.77417 h 30.1625 v -1.77417 z m 0,3.548465 v 8.871225 h 1.774294 v -5.322754 h 1.774294 v -1.774302 h -1.774294 v -1.774169 z m 3.548588,3.548471 v 1.774295 h 1.774169 v -1.774295 z m 1.774169,0 h 1.774294 v 5.322754 h 1.774295 v -8.871225 h -1.774295 v 1.774169 h -1.774294 z m 5.322883,-3.548471 v 5.322766 h 7.096924 v 1.774293 h -7.096924 v 1.774166 h 8.871222 v -5.322754 h -7.097052 v -1.774302 h 7.097052 v -1.774169 z m 10.645513,0 v 8.871225 h 8.871347 V 92.113447 H 42.104038 V 85.016388 Z M 19.038587,95.661904 v 1.774176 h 30.1625 v -1.774176 z" /></g></g></svg>
