<?xml version="1.0" encoding="UTF-8" standalone="no"?>
<!-- Created with Inkscape (http://www.inkscape.org/) -->

<svg
   id="svg5"
   version="1.1"
   viewBox="0 0 210 297"
   height="297mm"
   width="210mm"
   xml:space="preserve"
   inkscape:version="1.2.1 (9c6d41e410, 2022-07-14)"
   sodipodi:docname="MSL.svg"
   xmlns:inkscape="http://www.inkscape.org/namespaces/inkscape"
   xmlns:sodipodi="http://sodipodi.sourceforge.net/DTD/sodipodi-0.dtd"
   xmlns:xlink="http://www.w3.org/1999/xlink"
   xmlns="http://www.w3.org/2000/svg"
   xmlns:svg="http://www.w3.org/2000/svg"><sodipodi:namedview
     id="namedview7"
     pagecolor="#ffffff"
     bordercolor="#666666"
     borderopacity="1.0"
     inkscape:showpageshadow="2"
     inkscape:pageopacity="0.0"
     inkscape:pagecheckerboard="0"
     inkscape:deskcolor="#d1d1d1"
     inkscape:document-units="mm"
     showgrid="false"
     inkscape:zoom="1.2623761"
     inkscape:cx="323.59612"
     inkscape:cy="832.55697"
     inkscape:window-width="2053"
     inkscape:window-height="1205"
     inkscape:window-x="3038"
     inkscape:window-y="169"
     inkscape:window-maximized="0"
     inkscape:current-layer="layer1" /><defs
     id="defs2"><linearGradient
       inkscape:collect="always"
       id="linearGradient1379"><stop
         style="stop-color:#000000;stop-opacity:1;"
         offset="0"
         id="stop1375" /><stop
         style="stop-color:#000000;stop-opacity:0;"
         offset="1"
         id="stop1377" /></linearGradient><linearGradient
       inkscape:collect="always"
       id="linearGradient1371"><stop
         style="stop-color:#000000;stop-opacity:1;"
         offset="0"
         id="stop1367" /><stop
         style="stop-color:#000000;stop-opacity:0;"
         offset="1"
         id="stop1369" /></linearGradient><linearGradient
       inkscape:collect="always"
       id="linearGradient4939"><stop
         style="stop-color:#ff6600;stop-opacity:1;"
         offset="0"
         id="stop4935" /><stop
         style="stop-color:#ffaf00;stop-opacity:0;"
         offset="1"
         id="stop4937" /></linearGradient><linearGradient
       inkscape:collect="always"
       id="linearGradient3891"><stop
         style="stop-color:#ff6600;stop-opacity:1;"
         offset="0"
         id="stop3887" /><stop
         style="stop-color:#ff6600;stop-opacity:0;"
         offset="1"
         id="stop3889" /></linearGradient><linearGradient
       inkscape:collect="always"
       id="linearGradient19672"><stop
         style="stop-color:#02263e;stop-opacity:1;"
         offset="0"
         id="stop19668" /><stop
         style="stop-color:#042e2d;stop-opacity:1;"
         offset="1"
         id="stop19670" /></linearGradient><linearGradient
       inkscape:collect="always"
       id="linearGradient15865"><stop
         style="stop-color:#0480cf;stop-opacity:1;"
         offset="0"
         id="stop15861" /><stop
         style="stop-color:#1d9ee3;stop-opacity:1;"
         offset="0.15231191"
         id="stop19717" /><stop
         style="stop-color:#52cbee;stop-opacity:1;"
         offset="0.73042607"
         id="stop19715" /><stop
         style="stop-color:#8afaf9;stop-opacity:1;"
         offset="1"
         id="stop15863" /></linearGradient><linearGradient
       inkscape:collect="always"
       xlink:href="#linearGradient15865"
       id="linearGradient15867"
       x1="100.71762"
       y1="249.35143"
       x2="91.220482"
       y2="190.87323"
       gradientUnits="userSpaceOnUse"
       gradientTransform="matrix(0.24187876,0,0,0.24187876,9.278906,37.438175)" /><linearGradient
       inkscape:collect="always"
       xlink:href="#linearGradient19672"
       id="linearGradient18940"
       gradientUnits="userSpaceOnUse"
       x1="271.8262"
       y1="561.62732"
       x2="194.31859"
       y2="328.04333"
       gradientTransform="matrix(0.08382838,0,0,0.08382838,11.741276,49.542459)" /><filter
       inkscape:collect="always"
       style="color-interpolation-filters:sRGB"
       id="filter19711"
       x="-0.0014835708"
       y="-0.0027202201"
       width="1.0029671"
       height="1.0054404"><feGaussianBlur
         inkscape:collect="always"
         stdDeviation="0.019299219"
         id="feGaussianBlur19713" /></filter><linearGradient
       inkscape:collect="always"
       xlink:href="#linearGradient3891"
       id="linearGradient3893"
       x1="48.462574"
       y1="226.45508"
       x2="53.501499"
       y2="221.26796"
       gradientUnits="userSpaceOnUse" /><linearGradient
       inkscape:collect="always"
       xlink:href="#linearGradient4939"
       id="linearGradient4824"
       gradientUnits="userSpaceOnUse"
       x1="49.967857"
       y1="225.80087"
       x2="51.142426"
       y2="221.3259"
       gradientTransform="translate(-60.713315,-21.14022)" /><linearGradient
       inkscape:collect="always"
       xlink:href="#linearGradient4939"
       id="linearGradient4910"
       gradientUnits="userSpaceOnUse"
       gradientTransform="rotate(180,31.394081,202.64196)"
       x1="49.548672"
       y1="225.59128"
       x2="50.932835"
       y2="221.1163" /><linearGradient
       inkscape:collect="always"
       xlink:href="#linearGradient1371"
       id="linearGradient1373"
       x1="165.83981"
       y1="206.96631"
       x2="145.68413"
       y2="215.56212"
       gradientUnits="userSpaceOnUse" /><linearGradient
       inkscape:collect="always"
       xlink:href="#linearGradient1379"
       id="linearGradient1381"
       x1="140.0524"
       y1="232.08684"
       x2="154.13174"
       y2="218.8226"
       gradientUnits="userSpaceOnUse" /></defs><g
     inkscape:label="Layer 1"
     inkscape:groupmode="layer"
     id="layer1"><rect
       style="fill:#666666;fill-opacity:1;stroke-width:2.35116;paint-order:markers stroke fill;stop-color:#000000"
       id="rect3232"
       width="237.8976"
       height="140.79341"
       x="-62.690121"
       y="120.78593" /><g
       id="g19728"
       transform="translate(70.880163,59.047998)"
       inkscape:export-filename="MSL.png"
       inkscape:export-xdpi="96"
       inkscape:export-ydpi="96"><rect
         style="font-variation-settings:normal;opacity:1;fill:url(#linearGradient18940);fill-opacity:1;stroke-width:0.58102;stroke-linecap:butt;stroke-linejoin:miter;stroke-miterlimit:4;stroke-dasharray:none;stroke-dashoffset:0;stroke-opacity:1;paint-order:markers stroke fill;stop-color:#000000;stop-opacity:1"
         id="rect18938"
         width="33.866665"
         height="33.866665"
         x="17.186504"
         y="72.518669" /><path
         id="path8684-1"
         style="font-size:73.3533px;line-height:1.25;font-family:'Visitor TT1 BRK';-inkscape-font-specification:'Visitor TT1 BRK, Normal';font-variation-settings:normal;letter-spacing:0px;fill:#000000;fill-opacity:0.306333;stroke-width:0.443566;stroke-linecap:butt;stroke-linejoin:miter;stroke-miterlimit:4;stroke-dasharray:none;stroke-dashoffset:0;stroke-opacity:1;filter:url(#filter19711);stop-color:#000000"
         d="m 18.774349,81.732422 c 0,0.767578 0,1.535156 0,2.302734 10.406901,0 20.813802,0 31.220703,0 0,-0.94401 0,-1.888021 0,-2.832031 -10.406901,0 -20.813802,0 -31.220703,0 0,0.176432 0,0.352865 0,0.529297 z m 0,3.548828 c 0,3.133464 0,6.266927 0,9.400391 0.94401,0 1.88802,0 2.832031,0 0,-1.774089 0,-3.548177 0,-5.322266 0.893034,-0.287435 0.737677,0.47352 0.716797,1.1 -0.264268,0.831846 0.442887,0.692269 1.029297,0.673437 0.600911,0 1.201823,0 1.802734,0 0,-0.591145 0,-1.182291 0,-1.773437 0.892915,-0.287967 0.734677,0.475218 0.714844,1.1 0,1.407422 0,2.814844 0,4.222266 0.944661,0 1.889323,0 2.833984,0 0,-3.309896 0,-6.619792 0,-9.929688 -0.944661,0 -1.889323,0 -2.833984,0 0,0.591146 0,1.182292 0,1.773438 -0.591146,0 -1.182292,0 -1.773438,0 0,0.591797 0,1.183593 0,1.77539 -0.892915,0.287967 -0.734677,-0.475218 -0.714843,-1.1 0.264412,-0.832641 -0.441395,-0.695064 -1.029297,-0.67539 -0.894607,0.279242 -0.782727,-0.448003 -0.746094,-1.1 0.264268,-0.831847 -0.442887,-0.69227 -1.029297,-0.673438 -0.600911,0 -1.201823,0 -1.802734,0 0,0.176432 0,0.352865 0,0.529297 z m 10.644531,0 c 0,1.950521 0,3.901042 0,5.851562 2.365885,10e-7 4.731771,10e-7 7.097656,0 0.287435,0.893035 -0.47352,0.737678 -1.1,0.716797 -1.999219,0 -3.998437,0 -5.997656,0 0,0.944011 0,1.888021 0,2.832032 3.309896,0 6.619792,0 9.929687,0 0,-2.126954 0,-4.253907 0,-6.38086 -2.365234,0 -4.730468,0 -7.095703,0 -0.287435,-0.893034 0.473521,-0.737677 1.1,-0.716797 1.998568,0 3.997136,0 5.995703,0 0,-0.94401 0,-1.88802 0,-2.832031 -3.309895,0 -6.619791,0 -9.929687,0 0,0.176432 0,0.352865 0,0.529297 z m 10.646484,0 c 0,3.133464 0,6.266927 0,9.400391 3.309896,0 6.619792,0 9.929688,0 0,-0.944011 0,-1.888021 0,-2.832032 -2.365886,0 -4.731771,0 -7.097657,0 0,-2.365885 0,-4.73177 0,-7.097656 -0.94401,0 -1.88802,0 -2.832031,0 0,0.176432 0,0.352865 0,0.529297 z M 18.774349,95.925781 c 0,0.768229 0,1.536459 0,2.304688 10.406901,0 20.813802,0 31.220703,0 0,-0.944662 0,-1.889323 0,-2.833985 -10.406901,0 -20.813802,0 -31.220703,0 0,0.176433 0,0.352865 0,0.529297 z" /><path
         id="path8684"
         style="font-size:73.3533px;line-height:1.25;font-family:'Visitor TT1 BRK';-inkscape-font-specification:'Visitor TT1 BRK, Normal';font-variation-settings:normal;letter-spacing:0px;opacity:1;fill:url(#linearGradient15867);fill-opacity:1;stroke-width:0.443566;stroke-linecap:butt;stroke-linejoin:miter;stroke-miterlimit:4;stroke-dasharray:none;stroke-dashoffset:0;stroke-opacity:1;stop-color:#000000;stop-opacity:1"
         d="m 19.038587,81.467923 v 1.77417 h 30.1625 v -1.77417 z m 0,3.548465 v 8.871225 h 1.774294 v -5.322754 h 1.774294 v -1.774302 h -1.774294 v -1.774169 z m 3.548588,3.548471 v 1.774295 h 1.774169 v -1.774295 z m 1.774169,0 h 1.774294 v 5.322754 h 1.774295 v -8.871225 h -1.774295 v 1.774169 h -1.774294 z m 5.322883,-3.548471 v 5.322766 h 7.096924 v 1.774293 h -7.096924 v 1.774166 h 8.871222 v -5.322754 h -7.097052 v -1.774302 h 7.097052 v -1.774169 z m 10.645513,0 v 8.871225 h 8.871347 V 92.113447 H 42.104038 V 85.016388 Z M 19.038587,95.661904 v 1.774176 h 30.1625 v -1.774176 z" /></g><rect
       style="font-variation-settings:normal;fill:#ffffff;fill-opacity:1;stroke-width:0.58102;stroke-linecap:butt;stroke-linejoin:miter;stroke-miterlimit:4;stroke-dasharray:none;stroke-dashoffset:0;stroke-opacity:1;paint-order:markers stroke fill;stop-color:#000000"
       id="rect3164"
       width="33.866665"
       height="33.866665"
       x="87.105591"
       y="173.06367" /><rect
       style="font-variation-settings:normal;fill:#ffffff;fill-opacity:1;stroke-width:0.58102;stroke-linecap:butt;stroke-linejoin:miter;stroke-miterlimit:4;stroke-dasharray:none;stroke-dashoffset:0;stroke-opacity:1;paint-order:markers stroke fill;stop-color:#000000"
       id="rect18938-0"
       width="33.866665"
       height="33.866665"
       x="83.696701"
       y="214.85692" /><path
       style="font-size:73.3533px;line-height:1.25;font-family:'Visitor TT1 BRK';-inkscape-font-specification:'Visitor TT1 BRK, Normal';font-variation-settings:normal;letter-spacing:0px;fill:#0088aa;fill-opacity:1;stroke-width:0.443566;stroke-linecap:butt;stroke-linejoin:miter;stroke-miterlimit:4;stroke-dasharray:none;stroke-dashoffset:0;stroke-opacity:1;stop-color:#000000"
       d="m 88.957673,196.2069 v 1.77418 h 30.162497 v -1.77418 z"
       id="path3166" /><path
       style="font-size:73.3533px;line-height:1.25;font-family:'Visitor TT1 BRK';-inkscape-font-specification:'Visitor TT1 BRK, Normal';font-variation-settings:normal;letter-spacing:0px;fill:#0088aa;fill-opacity:1;stroke-width:0.443566;stroke-linecap:butt;stroke-linejoin:miter;stroke-miterlimit:4;stroke-dasharray:none;stroke-dashoffset:0;stroke-opacity:1;stop-color:#000000"
       d="m 110.24883,185.56139 v 8.87122 h 8.87134 v -1.77416 h -7.09705 v -7.09706 z"
       id="path3168" /><path
       id="path1283"
       style="font-size:73.3533px;line-height:1.25;font-family:'Visitor TT1 BRK';-inkscape-font-specification:'Visitor TT1 BRK, Normal';font-variation-settings:normal;letter-spacing:0px;fill:#55d400;fill-opacity:1;stroke-width:0.443566;stroke-linecap:butt;stroke-linejoin:miter;stroke-miterlimit:4;stroke-dasharray:none;stroke-dashoffset:0;stroke-opacity:1;stop-color:#000000"
       d="M 85.548783 227.3546 L 85.548783 236.22589 L 87.323352 236.22589 L 87.323352 230.90322 L 89.097404 230.90322 L 89.097404 229.12917 L 87.323352 229.12917 L 87.323352 227.3546 L 85.548783 227.3546 z M 89.097404 230.90322 L 89.097404 232.67779 L 90.871973 232.67779 L 90.871973 230.90322 L 89.097404 230.90322 z M 90.871973 230.90322 L 92.646025 230.90322 L 92.646025 236.22589 L 94.420593 236.22589 L 94.420593 227.3546 L 92.646025 227.3546 L 92.646025 229.12917 L 90.871973 229.12917 L 90.871973 230.90322 z M 96.194645 227.3546 L 96.194645 232.67779 L 103.29137 232.67779 L 103.29137 234.45184 L 96.194645 234.45184 L 96.194645 236.22589 L 105.06594 236.22589 L 105.06594 230.90322 L 97.968697 230.90322 L 97.968697 229.12917 L 105.06594 229.12917 L 105.06594 227.3546 L 96.194645 227.3546 z M 106.83999 227.3546 L 106.83999 236.22589 L 115.71128 236.22589 L 115.71128 234.45184 L 108.61456 234.45184 L 108.61456 227.3546 L 106.83999 227.3546 z " /><path
       style="font-size:73.3533px;line-height:1.25;font-family:'Visitor TT1 BRK';-inkscape-font-specification:'Visitor TT1 BRK, Normal';font-variation-settings:normal;letter-spacing:0px;fill:#0088aa;fill-opacity:1;stroke-width:0.443566;stroke-linecap:butt;stroke-linejoin:miter;stroke-miterlimit:4;stroke-dasharray:none;stroke-dashoffset:0;stroke-opacity:1;stop-color:#000000"
       d="m 99.603313,185.56139 v 5.32276 h 7.096927 v 1.7743 h -7.096927 v 1.77416 h 8.871217 v -5.32275 h -7.09705 v -1.7743 h 7.09705 v -1.77417 z"
       id="path3170" /><path
       style="font-size:73.3533px;line-height:1.25;font-family:'Visitor TT1 BRK';-inkscape-font-specification:'Visitor TT1 BRK, Normal';font-variation-settings:normal;letter-spacing:0px;fill:#0088aa;fill-opacity:1;stroke-width:0.443566;stroke-linecap:butt;stroke-linejoin:miter;stroke-miterlimit:4;stroke-dasharray:none;stroke-dashoffset:0;stroke-opacity:1;stop-color:#000000"
       d="m 94.28043,189.10986 h 1.774294 v 5.32275 h 1.774295 v -8.87122 h -1.774295 v 1.77417 H 94.28043 Z"
       id="path3172" /><path
       style="font-size:73.3533px;line-height:1.25;font-family:'Visitor TT1 BRK';-inkscape-font-specification:'Visitor TT1 BRK, Normal';font-variation-settings:normal;letter-spacing:0px;fill:#0088aa;fill-opacity:1;stroke-width:0.443566;stroke-linecap:butt;stroke-linejoin:miter;stroke-miterlimit:4;stroke-dasharray:none;stroke-dashoffset:0;stroke-opacity:1;stop-color:#000000"
       d="m 92.506261,189.10986 v 1.77429 h 1.774169 v -1.77429 z"
       id="path3174" /><path
       style="font-size:73.3533px;line-height:1.25;font-family:'Visitor TT1 BRK';-inkscape-font-specification:'Visitor TT1 BRK, Normal';font-variation-settings:normal;letter-spacing:0px;fill:#0088aa;fill-opacity:1;stroke-width:0.443566;stroke-linecap:butt;stroke-linejoin:miter;stroke-miterlimit:4;stroke-dasharray:none;stroke-dashoffset:0;stroke-opacity:1;stop-color:#000000"
       d="m 88.957673,185.56139 v 8.87122 h 1.774294 v -5.32275 h 1.774294 v -1.7743 h -1.774294 v -1.77417 z"
       id="path3176" /><path
       style="font-size:73.3533px;line-height:1.25;font-family:'Visitor TT1 BRK';-inkscape-font-specification:'Visitor TT1 BRK, Normal';font-variation-settings:normal;letter-spacing:0px;fill:#0088aa;fill-opacity:1;stroke-width:0.443566;stroke-linecap:butt;stroke-linejoin:miter;stroke-miterlimit:4;stroke-dasharray:none;stroke-dashoffset:0;stroke-opacity:1;stop-color:#000000"
       d="m 88.957673,182.01292 v 1.77417 h 30.162497 v -1.77417 z"
       id="path3178" /><rect
       style="font-variation-settings:normal;fill:#0088aa;fill-opacity:1;stroke-width:0.58102;stroke-linecap:butt;stroke-linejoin:miter;stroke-miterlimit:4;stroke-dasharray:none;stroke-dashoffset:0;stroke-opacity:1;paint-order:markers stroke fill;stop-color:#000000"
       id="rect18938-0-1"
       width="33.866665"
       height="33.866665"
       x="33.01128"
       y="153.20439" /><path
       style="font-size:73.3533px;line-height:1.25;font-family:'Visitor TT1 BRK';-inkscape-font-specification:'Visitor TT1 BRK, Normal';font-variation-settings:normal;letter-spacing:0px;fill:#ffffff;fill-opacity:1;stroke-width:0.443566;stroke-linecap:butt;stroke-linejoin:miter;stroke-miterlimit:4;stroke-dasharray:none;stroke-dashoffset:0;stroke-opacity:1;stop-color:#000000"
       d="m 34.863361,176.34761 v 1.77418 h 30.162497 v -1.77418 z"
       id="path1285-9" /><path
       style="font-size:73.3533px;line-height:1.25;font-family:'Visitor TT1 BRK';-inkscape-font-specification:'Visitor TT1 BRK, Normal';font-variation-settings:normal;letter-spacing:0px;fill:#ffffff;fill-opacity:1;stroke-width:0.443566;stroke-linecap:butt;stroke-linejoin:miter;stroke-miterlimit:4;stroke-dasharray:none;stroke-dashoffset:0;stroke-opacity:1;stop-color:#000000"
       d="m 56.154518,165.7021 v 8.87122 h 8.87134 v -1.77416 h -7.09705 v -7.09706 z"
       id="path1283-2" /><path
       style="font-size:73.3533px;line-height:1.25;font-family:'Visitor TT1 BRK';-inkscape-font-specification:'Visitor TT1 BRK, Normal';font-variation-settings:normal;letter-spacing:0px;fill:#ffffff;fill-opacity:1;stroke-width:0.443566;stroke-linecap:butt;stroke-linejoin:miter;stroke-miterlimit:4;stroke-dasharray:none;stroke-dashoffset:0;stroke-opacity:1;stop-color:#000000"
       d="m 45.509001,165.7021 v 5.32276 h 7.096927 v 1.7743 h -7.096927 v 1.77416 h 8.871217 v -5.32275 h -7.09705 v -1.7743 h 7.09705 v -1.77417 z"
       id="path1281-3" /><path
       style="font-size:73.3533px;line-height:1.25;font-family:'Visitor TT1 BRK';-inkscape-font-specification:'Visitor TT1 BRK, Normal';font-variation-settings:normal;letter-spacing:0px;fill:#ffffff;fill-opacity:1;stroke-width:0.443566;stroke-linecap:butt;stroke-linejoin:miter;stroke-miterlimit:4;stroke-dasharray:none;stroke-dashoffset:0;stroke-opacity:1;stop-color:#000000"
       d="m 40.186118,169.25057 h 1.774294 v 5.32275 h 1.774295 v -8.87122 h -1.774295 v 1.77417 h -1.774294 z"
       id="path1279-3" /><path
       style="font-size:73.3533px;line-height:1.25;font-family:'Visitor TT1 BRK';-inkscape-font-specification:'Visitor TT1 BRK, Normal';font-variation-settings:normal;letter-spacing:0px;fill:#ffffff;fill-opacity:1;stroke-width:0.443566;stroke-linecap:butt;stroke-linejoin:miter;stroke-miterlimit:4;stroke-dasharray:none;stroke-dashoffset:0;stroke-opacity:1;stop-color:#000000"
       d="m 38.411949,169.25057 v 1.77429 h 1.774169 v -1.77429 z"
       id="path1277-0" /><path
       style="font-size:73.3533px;line-height:1.25;font-family:'Visitor TT1 BRK';-inkscape-font-specification:'Visitor TT1 BRK, Normal';font-variation-settings:normal;letter-spacing:0px;fill:#ffffff;fill-opacity:1;stroke-width:0.443566;stroke-linecap:butt;stroke-linejoin:miter;stroke-miterlimit:4;stroke-dasharray:none;stroke-dashoffset:0;stroke-opacity:1;stop-color:#000000"
       d="m 34.863361,165.7021 v 8.87122 h 1.774294 v -5.32275 h 1.774294 v -1.7743 h -1.774294 v -1.77417 z"
       id="path1275-5" /><path
       style="font-size:73.3533px;line-height:1.25;font-family:'Visitor TT1 BRK';-inkscape-font-specification:'Visitor TT1 BRK, Normal';font-variation-settings:normal;letter-spacing:0px;fill:#ffffff;fill-opacity:1;stroke-width:0.443566;stroke-linecap:butt;stroke-linejoin:miter;stroke-miterlimit:4;stroke-dasharray:none;stroke-dashoffset:0;stroke-opacity:1;stop-color:#000000"
       d="m 34.863361,162.15363 v 1.77417 h 30.162497 v -1.77417 z"
       id="path8684-5-6" /><rect
       style="font-variation-settings:normal;fill:#ffffff;fill-opacity:1;stroke-width:0.58102;stroke-linecap:butt;stroke-linejoin:miter;stroke-miterlimit:4;stroke-dasharray:none;stroke-dashoffset:0;stroke-opacity:1;paint-order:markers stroke fill;stop-color:#000000"
       id="rect18938-0-1-0"
       width="33.866665"
       height="33.866665"
       x="23.526249"
       y="207.0023" /><path
       style="font-size:73.3533px;line-height:1.25;font-family:'Visitor TT1 BRK';-inkscape-font-specification:'Visitor TT1 BRK, Normal';font-variation-settings:normal;letter-spacing:0px;fill:url(#linearGradient3893);fill-opacity:1;stroke-width:0.443566;stroke-linecap:butt;stroke-linejoin:miter;stroke-miterlimit:4;stroke-dasharray:none;stroke-dashoffset:0;stroke-opacity:1;stop-color:#000000"
       d="m 46.669488,219.5 v 8.87122 h 8.87134 v -1.77416 h -7.09705 V 219.5 Z"
       id="path1283-2-9" /><path
       style="font-size:73.3533px;line-height:1.25;font-family:'Visitor TT1 BRK';-inkscape-font-specification:'Visitor TT1 BRK, Normal';font-variation-settings:normal;letter-spacing:0px;fill:#0480cf;fill-opacity:1;stroke-width:0.443566;stroke-linecap:butt;stroke-linejoin:miter;stroke-miterlimit:4;stroke-dasharray:none;stroke-dashoffset:0;stroke-opacity:1;stop-color:#000000"
       d="m 36.023971,219.5 v 5.32276 h 7.096927 v 1.7743 h -7.096927 v 1.77416 h 8.871217 v -5.32275 h -7.09705 v -1.7743 h 7.09705 V 219.5 Z"
       id="path1281-3-2" /><path
       style="font-size:73.3533px;line-height:1.25;font-family:'Visitor TT1 BRK';-inkscape-font-specification:'Visitor TT1 BRK, Normal';font-variation-settings:normal;letter-spacing:0px;fill:#0480cf;fill-opacity:1;stroke-width:0.443566;stroke-linecap:butt;stroke-linejoin:miter;stroke-miterlimit:4;stroke-dasharray:none;stroke-dashoffset:0;stroke-opacity:1;stop-color:#000000"
       d="m 30.701088,223.04847 h 1.774294 v 5.32275 h 1.774295 V 219.5 h -1.774295 v 1.77417 h -1.774294 z"
       id="path1279-3-5" /><path
       style="font-size:73.3533px;line-height:1.25;font-family:'Visitor TT1 BRK';-inkscape-font-specification:'Visitor TT1 BRK, Normal';font-variation-settings:normal;letter-spacing:0px;fill:#0480cf;fill-opacity:1;stroke-width:0.443566;stroke-linecap:butt;stroke-linejoin:miter;stroke-miterlimit:4;stroke-dasharray:none;stroke-dashoffset:0;stroke-opacity:1;stop-color:#000000"
       d="m 28.926919,223.04847 v 1.77429 h 1.774169 v -1.77429 z"
       id="path1277-0-9" /><path
       style="font-size:73.3533px;line-height:1.25;font-family:'Visitor TT1 BRK';-inkscape-font-specification:'Visitor TT1 BRK, Normal';font-variation-settings:normal;letter-spacing:0px;fill:#0480cf;fill-opacity:1;stroke-width:0.443566;stroke-linecap:butt;stroke-linejoin:miter;stroke-miterlimit:4;stroke-dasharray:none;stroke-dashoffset:0;stroke-opacity:1;stop-color:#000000"
       d="m 25.378331,219.5 v 8.87122 h 1.774294 v -5.32275 h 1.774294 v -1.7743 H 27.152625 V 219.5 Z"
       id="path1275-5-2" /><g
       id="g5736"
       inkscape:export-filename="MSL.png"
       inkscape:export-xdpi="96"
       inkscape:export-ydpi="96"><rect
         style="font-variation-settings:normal;fill:#ffffff;fill-opacity:1;stroke-width:0.58102;stroke-linecap:butt;stroke-linejoin:miter;stroke-miterlimit:4;stroke-dasharray:none;stroke-dashoffset:0;stroke-opacity:1;paint-order:markers stroke fill;stop-color:#000000"
         id="rect18938-0-1-0-4"
         width="33.866665"
         height="33.866665"
         x="-15.895905"
         y="175.13852"
         inkscape:export-filename="MSL.png"
         inkscape:export-xdpi="96"
         inkscape:export-ydpi="96" /><path
         style="font-size:73.3533px;line-height:1.25;font-family:'Visitor TT1 BRK';-inkscape-font-specification:'Visitor TT1 BRK, Normal';font-variation-settings:normal;letter-spacing:0px;fill:url(#linearGradient4824);fill-opacity:1;stroke-width:0.443566;stroke-linecap:butt;stroke-linejoin:miter;stroke-miterlimit:4;stroke-dasharray:none;stroke-dashoffset:0;stroke-opacity:1;stop-color:#000000"
         d="m -14.043825,177.16668 v 30.06433 h 30.064454 v -1.77416 h -28.290164 v -28.29017 z"
         id="path1283-2-9-9"
         sodipodi:nodetypes="ccccccc" /><path
         style="font-size:73.3533px;line-height:1.25;font-family:'Visitor TT1 BRK';-inkscape-font-specification:'Visitor TT1 BRK, Normal';font-variation-settings:normal;letter-spacing:0px;fill:url(#linearGradient4910);fill-opacity:1;stroke-width:0.443566;stroke-linecap:butt;stroke-linejoin:miter;stroke-miterlimit:4;stroke-dasharray:none;stroke-dashoffset:0;stroke-opacity:1;stop-color:#000000"
         d="m 16.118672,206.97702 v -30.06433 h -30.06445 v 1.77416 h 28.29016 v 28.29017 z"
         id="path1283-2-9-9-3"
         sodipodi:nodetypes="ccccccc" /><path
         id="path1279-3-5-4"
         style="font-size:73.3533px;line-height:1.25;font-family:'Visitor TT1 BRK';-inkscape-font-specification:'Visitor TT1 BRK, Normal';font-variation-settings:normal;letter-spacing:0px;fill:#0480cf;fill-opacity:1;stroke-width:0.443566;stroke-linecap:butt;stroke-linejoin:miter;stroke-miterlimit:4;stroke-dasharray:none;stroke-dashoffset:0;stroke-opacity:1;stop-color:#000000"
         d="M -14.043587 187.63609 L -14.043587 196.50739 L -12.269535 196.50739 L -12.269535 191.18471 L -10.495483 191.18471 L -10.495483 189.41014 L -12.269535 189.41014 L -12.269535 187.63609 L -14.043587 187.63609 z M -10.495483 191.18471 L -10.495483 192.95876 L -8.7209147 192.95876 L -8.7209147 191.18471 L -10.495483 191.18471 z M -8.7209147 191.18471 L -6.9468628 191.18471 L -6.9468628 196.50739 L -5.1722941 196.50739 L -5.1722941 187.63609 L -6.9468628 187.63609 L -6.9468628 189.41014 L -8.7209147 189.41014 L -8.7209147 191.18471 z " /><path
         style="font-size:73.3533px;line-height:1.25;font-family:'Visitor TT1 BRK';-inkscape-font-specification:'Visitor TT1 BRK, Normal';font-variation-settings:normal;letter-spacing:0px;fill:#0480cf;fill-opacity:1;stroke-width:0.443566;stroke-linecap:butt;stroke-linejoin:miter;stroke-miterlimit:4;stroke-dasharray:none;stroke-dashoffset:0;stroke-opacity:1;stop-color:#000000"
         d="m 7.2473318,187.63622 v 8.87122 h 8.8713402 v -1.77416 H 9.0216218 v -7.09706 z"
         id="path1283-2-9-0" /><path
         style="font-size:73.3533px;line-height:1.25;font-family:'Visitor TT1 BRK';-inkscape-font-specification:'Visitor TT1 BRK, Normal';font-variation-settings:normal;letter-spacing:0px;fill:#0480cf;fill-opacity:1;stroke-width:0.443566;stroke-linecap:butt;stroke-linejoin:miter;stroke-miterlimit:4;stroke-dasharray:none;stroke-dashoffset:0;stroke-opacity:1;stop-color:#000000"
         d="m -3.3981852,187.63622 v 5.32276 h 7.096927 v 1.7743 h -7.096927 v 1.77416 h 8.871217 v -5.32275 h -7.09705 v -1.7743 h 7.09705 v -1.77417 z"
         id="path1281-3-2-0" /></g><rect
       style="font-variation-settings:normal;fill:#ffffff;fill-opacity:1;stroke-width:0.58102;stroke-linecap:butt;stroke-linejoin:miter;stroke-miterlimit:4;stroke-dasharray:none;stroke-dashoffset:0;stroke-opacity:1;paint-order:markers stroke fill;stop-color:#000000"
       id="rect18938-0-1-0-4-3"
       width="33.866665"
       height="33.866665"
       x="135.33492"
       y="202.509"
       inkscape:export-filename="MSL.png"
       inkscape:export-xdpi="96"
       inkscape:export-ydpi="96" /><path
       id="path1279-3-5-4-8"
       style="font-size:73.3533px;line-height:1.25;font-family:'Visitor TT1 BRK';-inkscape-font-specification:'Visitor TT1 BRK, Normal';font-variation-settings:normal;letter-spacing:0px;fill:#000000;fill-opacity:1;stroke-width:0.443566;stroke-linecap:butt;stroke-linejoin:miter;stroke-miterlimit:4;stroke-dasharray:none;stroke-dashoffset:0;stroke-opacity:1;stop-color:#000000"
       d="m 137.18723,215.00657 v 8.8713 h 1.77405 v -5.32268 h 1.77406 v -1.77457 h -1.77406 v -1.77405 z m 3.54811,3.54862 v 1.77405 h 1.77457 v -1.77405 z m 1.77457,0 h 1.77405 v 5.32268 h 1.77457 v -8.8713 h -1.77457 v 1.77405 h -1.77405 z" /><path
       style="font-size:73.3533px;line-height:1.25;font-family:'Visitor TT1 BRK';-inkscape-font-specification:'Visitor TT1 BRK, Normal';font-variation-settings:normal;letter-spacing:0px;fill:#000000;fill-opacity:1;stroke-width:0.443566;stroke-linecap:butt;stroke-linejoin:miter;stroke-miterlimit:4;stroke-dasharray:none;stroke-dashoffset:0;stroke-opacity:1;stop-color:#000000"
       d="m 158.47815,215.0067 v 8.87122 h 8.87134 v -1.77416 h -7.09705 v -7.09706 z"
       id="path1283-2-9-0-4" /><path
       style="font-size:73.3533px;line-height:1.25;font-family:'Visitor TT1 BRK';-inkscape-font-specification:'Visitor TT1 BRK, Normal';font-variation-settings:normal;letter-spacing:0px;fill:#000000;fill-opacity:1;stroke-width:0.443566;stroke-linecap:butt;stroke-linejoin:miter;stroke-miterlimit:4;stroke-dasharray:none;stroke-dashoffset:0;stroke-opacity:1;stop-color:#000000"
       d="m 147.83263,215.0067 v 5.32276 h 7.09693 v 1.7743 h -7.09693 v 1.77416 h 8.87122 v -5.32275 h -7.09705 v -1.7743 h 7.09705 v -1.77417 z"
       id="path1281-3-2-0-7" /><path
       style="font-size:73.3533px;line-height:1.25;font-family:'Visitor TT1 BRK';-inkscape-font-specification:'Visitor TT1 BRK, Normal';font-variation-settings:normal;letter-spacing:0px;fill:#ccff00;fill-opacity:1;stroke-width:0.443566;stroke-linecap:butt;stroke-linejoin:miter;stroke-miterlimit:4;stroke-dasharray:none;stroke-dashoffset:0;stroke-opacity:1;stop-color:#000000"
       d="m -14.033291,154.30915 v 1.77417 h 30.162497 v -1.77417 z"
       id="path8684-5-6-70" /><path
       id="path516"
       style="fill:url(#linearGradient1381);stroke-width:2.97339;paint-order:markers stroke fill;stop-color:#000000;fill-opacity:1"
       d="M 138.23911 225.71387 A 15.377407 15.377407 0 0 0 152.26823 234.81978 A 15.377407 15.377407 0 0 0 166.29734 225.71387 L 164.35793 225.71387 A 13.623062 13.623062 0 0 1 152.26823 233.06536 A 13.623062 13.623062 0 0 1 140.17852 225.71387 L 138.23911 225.71387 z " /><path
       id="path516-4"
       style="fill:#000000;stroke-width:2.97339;paint-order:markers stroke fill;stop-color:#000000"
       d="m 125.52845,242.20048 a 15.377407,15.377407 0 0 0 -15.37736,15.37736 15.377407,15.377407 0 0 0 15.37736,15.37736 15.377407,15.377407 0 0 0 15.37735,-15.37736 15.377407,15.377407 0 0 0 -15.37735,-15.37736 z m 0,1.75442 a 13.623062,13.623062 0 0 1 13.62294,13.62294 13.623062,13.623062 0 0 1 -13.62294,13.62294 13.623062,13.623062 0 0 1 -13.62295,-13.62294 13.623062,13.623062 0 0 1 13.62295,-13.62294 z" /><path
       id="path516-1"
       style="fill:url(#linearGradient1373);stroke-width:2.97339;paint-order:markers stroke fill;stop-color:#000000;fill-opacity:1"
       d="M 152.26823 204.06506 A 15.377407 15.377407 0 0 0 138.00398 213.70944 L 139.92169 213.70944 A 13.623062 13.623062 0 0 1 152.26823 205.81948 A 13.623062 13.623062 0 0 1 164.61476 213.70944 L 166.53247 213.70944 A 15.377407 15.377407 0 0 0 152.26823 204.06506 z " /></g></svg>
