<?xml version="1.0" encoding="UTF-8" standalone="no"?>
<svg
   viewBox="0 0 128 128"
   version="1.1"
   id="svg8"
   sodipodi:docname="plumber.svg"
   inkscape:version="1.2.1 (9c6d41e410, 2022-07-14)"
   xml:space="preserve"
   inkscape:export-filename="plumber.png"
   inkscape:export-xdpi="96"
   inkscape:export-ydpi="96"
   xmlns:inkscape="http://www.inkscape.org/namespaces/inkscape"
   xmlns:sodipodi="http://sodipodi.sourceforge.net/DTD/sodipodi-0.dtd"
   xmlns="http://www.w3.org/2000/svg"
   xmlns:svg="http://www.w3.org/2000/svg"><defs
     id="defs12"><inkscape:path-effect
       effect="fillet_chamfer"
       id="path-effect5030"
       is_visible="true"
       lpeversion="1"
       nodesatellites_param="F,0,0,1,0,6,0,1 @ F,0,0,1,0,6,0,1 @ F,0,0,1,0,6,0,1 @ F,0,0,1,0,6,0,1 @ F,0,0,1,0,6,0,1 @ F,0,0,1,0,6,0,1"
       unit="px"
       method="auto"
       mode="F"
       radius="6"
       chamfer_steps="1"
       flexible="false"
       use_knot_distance="true"
       apply_no_radius="true"
       apply_with_radius="true"
       only_selected="false"
       hide_knots="false" /><inkscape:path-effect
       effect="fillet_chamfer"
       id="path-effect5030-9"
       is_visible="true"
       lpeversion="1"
       nodesatellites_param="F,0,0,1,0,6,0,1 @ F,0,0,1,0,6,0,1 @ F,0,0,1,0,6,0,1 @ F,0,0,1,0,6,0,1 @ F,0,0,1,0,6,0,1 @ F,0,0,1,0,6,0,1"
       unit="px"
       method="auto"
       mode="F"
       radius="6"
       chamfer_steps="1"
       flexible="false"
       use_knot_distance="true"
       apply_no_radius="true"
       apply_with_radius="true"
       only_selected="false"
       hide_knots="false" /><inkscape:path-effect
       effect="fillet_chamfer"
       id="path-effect5030-4"
       is_visible="true"
       lpeversion="1"
       nodesatellites_param="F,0,0,1,0,6,0,1 @ F,0,0,1,0,6,0,1 @ F,0,0,1,0,6,0,1 @ F,0,0,1,0,6,0,1 @ F,0,0,1,0,6,0,1 @ F,0,0,1,0,6,0,1"
       unit="px"
       method="auto"
       mode="F"
       radius="6"
       chamfer_steps="1"
       flexible="false"
       use_knot_distance="true"
       apply_no_radius="true"
       apply_with_radius="true"
       only_selected="false"
       hide_knots="false" /><inkscape:path-effect
       effect="fillet_chamfer"
       id="path-effect5030-9-0"
       is_visible="true"
       lpeversion="1"
       nodesatellites_param="F,0,0,1,0,6,0,1 @ F,0,0,1,0,6,0,1 @ F,0,0,1,0,6,0,1 @ F,0,0,1,0,6,0,1 @ F,0,0,1,0,6,0,1 @ F,0,0,1,0,6,0,1"
       unit="px"
       method="auto"
       mode="F"
       radius="6"
       chamfer_steps="1"
       flexible="false"
       use_knot_distance="true"
       apply_no_radius="true"
       apply_with_radius="true"
       only_selected="false"
       hide_knots="false" /><filter
       style="color-interpolation-filters:sRGB;"
       inkscape:label="Lightness-Contrast"
       id="filter1090"
       x="0"
       y="0"
       width="1"
       height="1"><feColorMatrix
         values="1.41534 0 0 0.106275 -0.207668 0 1.41534 0 0.106275 -0.207668 0 0 1.41534 0.106275 -0.207668 0 0 0 1 0"
         id="feColorMatrix1088" /></filter></defs><sodipodi:namedview
     id="namedview10"
     pagecolor="#ffffff"
     bordercolor="#666666"
     borderopacity="1.0"
     inkscape:showpageshadow="2"
     inkscape:pageopacity="0.0"
     inkscape:pagecheckerboard="0"
     inkscape:deskcolor="#d1d1d1"
     showgrid="false"
     inkscape:zoom="2.8284271"
     inkscape:cx="-109.77833"
     inkscape:cy="124.80435"
     inkscape:window-width="3440"
     inkscape:window-height="1369"
     inkscape:window-x="1912"
     inkscape:window-y="-8"
     inkscape:window-maximized="1"
     inkscape:current-layer="svg8" /><g
     id="g8552"
     inkscape:export-filename="plumber.png"
     inkscape:export-xdpi="96"
     inkscape:export-ydpi="96"><g
       id="g2909-0-4-7-0-0-3-6"
       transform="matrix(3.7795276,0,0,3.7795276,-381.98441,33.105879)"><path
         id="path349-2-5-6-4-8-1-7-8-7-0-7-0-6"
         style="fill:#577d99;fill-opacity:1;stroke:#80a0b7;stroke-width:0.0664867;stroke-linecap:round;stroke-linejoin:round;stroke-dasharray:none;stroke-opacity:1;paint-order:markers fill stroke;stop-color:#000000"
         d="m 103.62558,16.473168 a 2.5325922,2.5325922 0 0 0 0.89286,0.944819 l 12.21471,7.052423 a 2.5325952,2.5325952 0 0 0 2.53249,-1.75e-4 l 12.21449,-7.052038 a 2.5325952,2.5325952 0 0 0 1.2664,-2.193114 L 132.74631,1.120619 A 2.5325922,2.5325922 0 0 0 132.40788,-0.1443 Z" /><path
         id="path349-2-5-6-0-0-4-1-2-8-2-3-8-2-3-7"
         style="fill:#80a0b7;fill-opacity:1;stroke:#80a0b7;stroke-width:0.0664867;stroke-linecap:round;stroke-linejoin:round;stroke-dasharray:none;stroke-opacity:1;paint-order:markers fill stroke;stop-color:#000000"
         d="m 119.26564,-8.122093 a 2.5325952,2.5325952 0 0 0 -2.53249,-1.81e-4 l -12.21471,7.052428 a 2.5325922,2.5325922 0 0 0 -0.89286,0.944819 l 28.7823,16.617472 a 2.5325922,2.5325922 0 0 0 0.33843,-1.26492 l 2.2e-4,-14.104467 a 2.5325952,2.5325952 0 0 0 -1.2664,-2.193111 z" /><path
         id="path349-2-5-6-0-0-4-2-9-4-1-5-1-6-3"
         style="fill:#99b3c5;fill-opacity:1;stroke:#99b3c5;stroke-width:0.0664867;stroke-linecap:round;stroke-linejoin:round;stroke-dasharray:none;stroke-opacity:1;paint-order:markers fill stroke;stop-color:#000000"
         d="m 104.51995,-1.070054 a 2.5325952,2.5325952 0 0 0 -1.2664,2.193112 l 2.2e-4,14.104464 a 2.5325922,2.5325922 0 0 0 0.37181,1.245645 l 28.7823,-16.617469 a 2.5325922,2.5325922 0 0 0 -0.92624,-0.925545 l -12.21471,-7.052424 a 2.5325952,2.5325952 0 0 0 -2.53249,1.78e-4 z" /></g><g
       id="g8534"><path
         id="path1719-9-7"
         style="fill:#d40000;stroke-width:0.0610959;stroke-linecap:square;paint-order:markers fill stroke;stop-color:#000000"
         d="m 49.927047,37.082948 c -0.531972,0.349679 -0.882937,0.924826 -1.037439,1.534759 -0.213184,0.834026 -0.138148,1.724317 0.12486,2.538203 0.129361,0.386773 0.299553,0.765207 0.53739,1.097235 0.10705,0.0889 0.222928,0.175778 0.328869,0.24826 0.749351,0.515016 1.628562,0.806867 2.48868,1.057547 0.994998,0.29113 2.013691,0.534114 2.948275,0.99492 0.34734,0.04266 0.709313,0.19055 0.901012,0.49881 0.211799,0.334099 0.19681,0.753524 0.129462,1.128501 -0.129717,0.672814 -0.407673,1.304124 -0.671495,1.932639 -0.296091,0.702488 -0.625795,1.395605 -0.828206,2.132948 -0.06698,0.253699 -0.115736,0.515787 -0.09996,0.77925 -1.04975,3.681508 -2.279865,7.307491 -3.38901,10.968858 -0.615552,2.030692 -1.195179,4.073843 -1.686634,6.142403 -0.38576,1.623319 -0.714048,3.260333 -0.962485,4.913573 -0.594025,3.837178 -1.184863,7.672747 -1.703466,11.521233 -0.339112,2.52869 -0.648533,5.068896 -0.886481,7.607388 -0.09667,1.024165 -0.179897,2.043872 -0.249923,3.070674 -0.07072,1.054754 -0.125776,2.11744 -0.158737,3.179896 -0.03124,1.046712 -0.04223,2.106215 -0.02117,3.157905 0.03391,1.67745 0.143973,3.37069 0.395311,5.03697 0.05031,0.33479 0.108618,0.67538 0.172626,1.01058 0.127701,0.65629 0.262733,1.31671 0.522706,1.93577 0.140827,0.34693 0.309787,0.68224 0.501903,1.00357 0.01754,0.0291 0.06322,0.10449 0.08127,0.13248 0.131519,0.20904 0.27262,0.412 0.422702,0.60815 0.04051,0.0509 0.100371,0.12921 0.150215,0.18911 0.788035,0.96661 1.789529,1.74753 2.885885,2.33587 0.118088,0.0634 0.258925,0.13541 0.388102,0.19807 0.529498,0.25795 1.093718,0.47697 1.648225,0.64597 0.190049,0.0577 0.381371,0.11125 0.580095,0.16029 0.577703,0.14404 1.166698,0.24279 1.759725,0.29575 0.138352,0.0116 0.300602,0.0234 0.448617,0.0302 0.198654,0.009 0.423415,0.0142 0.632811,0.0118 0.157628,-0.002 0.309227,-0.006 0.459625,-0.0148 0.688408,-0.037 1.373701,-0.1421 2.039381,-0.32218 0.101022,-0.0273 0.22691,-0.0635 0.336567,-0.0982 1.331209,-0.41312 2.569063,-1.15603 3.513626,-2.18611 0.945306,-1.14148 1.640293,-2.47918 2.086822,-3.88979 0.440451,-1.37731 0.660111,-2.81557 0.768424,-4.25458 0.03087,-0.41213 0.05327,-0.8403 0.06827,-1.25927 0.08975,-2.51799 -0.07283,-5.050691 -0.0013,-7.574219 0.08294,-3.248657 0.345935,-6.491609 0.747559,-9.715937 0.276255,-2.18025 0.607456,-4.35507 1.055768,-6.507074 0.09633,-0.462135 0.203887,-0.921813 0.317383,-1.380008 1.702193,0.284187 3.354532,0.799218 5.049719,1.117132 0.636161,0.116251 1.278727,0.210287 1.92559,0.234025 0.517411,0.0046 1.030495,-0.244659 1.337817,-0.662518 0.372339,-0.486851 0.450481,-1.169431 0.221096,-1.734774 -0.03963,-0.09784 -0.08183,-0.194661 -0.122395,-0.292128 0.33282,-0.09427 0.701656,-0.175611 0.939502,-0.448076 0.20792,-0.24283 0.203134,-0.583134 0.183318,-0.883929 -0.03215,-0.466994 -0.114096,-0.959857 0.05767,-1.41247 0.05425,-0.153565 0.147607,-0.291575 0.244281,-0.418709 0.05785,-0.567501 0.321599,-1.084088 0.592885,-1.576197 0.225933,-0.418349 0.471813,-0.86085 0.460501,-1.351074 -0.0045,-0.304514 -0.112794,-0.596675 -0.256074,-0.86179 -0.0021,-0.382817 0.101063,-0.777247 0.352778,-1.073241 0.32948,-0.398017 0.822127,-0.595604 1.275082,-0.814915 0.367309,-0.177068 0.758536,-0.383468 0.960764,-0.755753 0.09252,-0.168222 0.134706,-0.358409 0.152943,-0.548113 0.388336,-0.609856 0.593577,-1.315985 0.729648,-2.020389 0.120166,-0.675701 0.181241,-1.369386 0.100523,-2.053392 -0.03371,-0.245513 -0.08049,-0.501891 -0.228936,-0.706549 -0.08937,-0.171815 -0.178747,-0.343629 -0.26812,-0.515444 0.193623,0.09067 0.393987,0.169194 0.583415,0.267422 0.883712,0.61054 1.975801,0.874539 3.042057,0.837814 1.434013,-0.047 2.83986,-0.580823 3.970399,-1.459162 0.515945,-0.400679 0.969684,-0.880844 1.339212,-1.419486 1.098657,-1.211351 1.880033,-2.674513 2.476054,-4.188411 0.103456,-0.264142 0.201087,-0.52545 0.293393,-0.788162 0.350375,-0.991558 0.640377,-2.003809 0.912864,-3.012058 0.08165,-0.306107 -0.138036,-0.408248 -0.06205,-0.715385 0.02284,-0.505036 -0.120623,-1.024247 -0.444055,-1.418328 -0.397958,-0.493255 -1.819324,-0.476449 -2.395133,-0.715523 -0.889892,-0.366613 -3.091788,-2.684 -3.997729,-3.00438 -8.664417,-2.627155 -14.866629,-3.83889 -23.532972,-6.459281 -1.171167,-0.351597 -2.341531,-0.707758 -3.515326,-1.04925 -3.375314,-0.270849 -6.751321,-0.556304 -10.10846,-1.005312 l -0.0086,0.0055 z"
         sodipodi:nodetypes="cccccccccccccccccccccccccccccccccscsccccccccccccccccccccccccccccccccccccccccccccc" /><path
         id="path3785-8-0"
         style="fill:#799bb2;fill-opacity:1;stroke-width:0.0610959;stroke-linecap:square;paint-order:markers fill stroke;stop-color:#000000"
         d="m 71.603516,13.519531 c -0.555518,0.06415 -1.393311,0.428074 -1.910157,0.47461 -0.606874,0.05651 -1.223744,0.141236 -1.828125,0.263671 -0.132028,0.02682 -0.257068,0.05487 -0.380859,0.08399 -0.24253,0.05519 -0.485183,0.118749 -0.716797,0.185547 -0.493288,0.142863 -0.983491,0.318658 -1.453125,0.509765 -0.561715,0.229059 -1.130193,0.493763 -1.677734,0.771485 -0.859221,0.439614 -1.713118,0.890439 -2.570313,1.333984 -0.90507,0.290253 -1.931586,-0.203875 -2.949218,-0.380859 -0.228957,-0.03605 -0.458125,-0.06685 -0.689454,-0.08203 -0.04534,-0.0017 -0.107878,-0.0048 -0.160156,-0.0059 -0.493725,-0.01918 -1.102675,-0.156932 -1.529297,0.109375 -0.516718,0.318616 -0.871624,0.824186 -1.248047,1.287109 -0.270664,0.339082 -0.543221,0.6741 -0.728515,1.066407 -0.01145,0.02382 -0.04161,0.09324 -0.05859,0.134765 -0.180284,0.437355 0.261055,0.649 0.242187,1.117188 8.888124,2.810681 17.479055,5.574125 26.460938,8.228516 -0.791995,3.318007 -3.306451,9.285881 -4.091797,12.605468 -0.973929,-0.216384 -1.947946,-0.433998 -2.921875,-0.65039 -0.05451,-0.03886 -0.1328,-0.03688 -0.197266,-0.05859 -1.009262,-0.230369 -2.002801,-0.522949 -2.992187,-0.826172 -0.557896,-0.17584 -1.117495,-0.350066 -1.658203,-0.574219 -0.09912,-0.04522 -0.195328,-0.09628 -0.292969,-0.144531 -0.226707,-0.583607 -0.278353,-1.213507 -0.347656,-1.830078 -0.02112,-0.200325 -0.04192,-0.401128 -0.0625,-0.601563 -0.623728,-0.11248 -1.249911,-0.220041 -1.873047,-0.304687 -2.034543,-0.289368 -4.075604,-0.519505 -6.111328,-0.806641 -0.506281,-0.07152 -1.003808,-0.189242 -1.511719,-0.25 -0.766325,-0.100169 -1.536107,-0.172172 -2.298828,-0.298828 -1.590772,-0.229707 -3.186202,-0.431661 -4.779297,-0.644531 -0.173909,-0.02297 -0.347574,-0.04537 -0.521484,-0.06836 -0.285226,0.49938 -0.582107,0.98467 -0.853516,1.492188 -0.262824,0.570379 -0.366269,1.213338 -0.308594,1.837891 -0.01454,0.07408 0.06515,0.06406 0.115235,0.08008 1.01694,0.23468 2.031661,0.476212 3.050781,0.701172 1.449947,0.191116 2.902496,0.362951 4.347656,0.58789 0.817463,0.132789 1.640563,0.229063 2.460938,0.341797 1.852975,0.244729 3.709423,0.472068 5.560547,0.736328 1.09721,0.160114 2.188881,0.363035 3.255859,0.667969 1.510503,0.421794 2.995467,0.935768 4.507812,1.351563 2.32148,0.66192 4.625779,1.389155 6.935547,2.083984 1.173947,0.352391 2.35666,0.689653 3.542969,1.007812 0.949816,0.262363 1.907185,0.511505 2.820313,0.886719 0.559943,0.234029 1.115042,0.551914 1.472656,1.056641 0.339663,0.48333 0.438215,1.088529 0.435547,1.667968 10e-4,0.387832 -0.03535,0.775741 -0.08398,1.160157 l 3.470703,1.009765 c -0.124625,-0.427932 -0.278979,-0.848741 -0.464843,-1.253906 -0.02697,-0.05761 -0.06712,-0.144684 -0.101563,-0.21289 -0.564647,-1.148283 -1.397315,-2.160984 -2.404297,-2.949219 -0.281193,-0.230248 -0.562536,-0.461195 -0.84375,-0.691407 0.307037,-1.184525 0.616584,-2.366964 0.96875,-3.539062 0.669978,-2.282229 1.352227,-4.56241 2.025391,-6.84375 0.189133,-0.6036 0.386132,-1.18942 0.556641,-1.796875 -0.168656,-4.197503 0.282167,-4.37394 0.904297,-8.925781 -0.02123,-0.03595 -0.05965,-0.105258 -0.08789,-0.154297 -0.677115,-1.174273 -1.541955,-3.235238 -2.511719,-4.179688 -0.09808,-0.09569 -0.215165,-0.204927 -0.322266,-0.304687 -0.374039,-0.345405 -0.767185,-0.680713 -1.162109,-0.990234 -1.894908,-1.481025 -4.043865,-2.620498 -6.294922,-3.457032 -1.147034,-0.425288 -2.350313,-0.777141 -3.55664,-1.042968 -1.009191,-0.223051 -2.023494,-0.38704 -3.052735,-0.494141 -0.977025,-0.101267 -2.960937,0.849252 -2.960937,-0.138672 0,-0.309256 -0.231143,-0.378332 -0.564453,-0.339844 z m -0.84961,44.546875 -4.46289,18.966797 8.90625,2.123047 6.013672,-18.568359 z" /><path
         style="fill:#ffffff;stroke-width:0.0962476;stroke-linecap:square;paint-order:markers fill stroke;stop-color:#000000"
         d="m 60.510019,23.539633 c -0.05057,0.0039 -0.514143,0.884977 -0.820162,2.012318 l -0.384385,2.094292 c 0.0084,0.973136 9.630304,2.897337 13.90997,3.09786 0.749911,0.02877 5.21815,-0.718635 6.142928,-0.920743 0.51342,-0.112197 1.578516,-0.07428 2.080266,-0.211692 l 0.873212,-0.46848 0.181695,-0.328607 c 0.08986,-0.162523 0.343644,-0.618416 0.408009,-1.106447 0.181837,-0.485555 -0.01373,-1.118272 -0.0521,-1.590252 -0.13659,-0.62995 -0.526078,-0.75257 -1.81765,-0.333128 l -1.19683,0.207253 -2.255607,0.204141 c -5.86126,0.160597 -11.750072,-0.996627 -17.069346,-2.656477 z"
         id="path3989-2"
         sodipodi:nodetypes="scccsccsccscccs" /><path
         id="path1354-9-1-1"
         style="fill:#000000;stroke-width:0.101827"
         d="m 72.796875,12.613281 c -0.351596,-0.0084 -0.704688,-0.0034 -1.056641,0.0059 -3.552224,0.128745 -5.931166,1.736525 -9.009765,3.335937 l -2.214844,1.150391 -2.470703,-0.482422 c -2.222453,-0.434765 -2.931586,-0.277906 -3.904297,0.882812 -0.956558,1.141442 -1.463997,2.145916 -0.236328,3.335938 0.892578,0.865206 2.988281,1.530393 5.068359,2.0625 0,0 -0.76873,2.653536 -1.197265,4.232422 l -0.345703,1.273437 0.699218,0.328125 c 1.661787,0.774819 4.437302,1.625445 7.617188,2.171875 1.113187,0.19129 4.743153,0.691069 7.642578,0.798828 -0.01344,0.732871 -0.389867,1.798562 -1.439453,2.923828 -2.438516,0.242112 -3.966886,0.735382 -5.166016,1.607422 -0.868118,-0.14449 -2.146615,-0.324682 -5.119141,-0.699218 -1.187366,-0.14961 -2.298447,-0.309658 -2.466796,-0.355469 -0.16837,-0.04582 -0.845352,-0.142701 -1.50586,-0.216797 -0.660497,-0.07409 -1.26838,-0.154096 -1.351562,-0.175781 -0.08319,-0.02164 -1.404182,-0.20426 -2.933594,-0.40625 l -2.779297,-0.367188 -0.835937,1.44336 c -0.281499,0.486088 -0.449131,1.207011 -0.435547,1.853515 -1.184965,1.297221 -0.926192,3.69673 0.03711,5.072266 1.629812,1.373816 4.691824,1.644157 6.658203,2.457031 -0.191372,1.178469 -0.901112,4.398797 -1.505859,6.158203 -2.414834,7.025594 -4.840645,14.312988 -5.990234,21.726563 -2.246882,14.489897 -4.213099,27.584891 -2.314454,35.812501 1.511023,6.54789 11.724207,9.32008 16.523438,4.18164 3.879158,-4.67671 2.868661,-11.11872 2.982422,-16.734376 0.151436,-7.476287 1.331583,-14.774162 2.080078,-17.771484 2.236271,0.389235 4.447928,1.188563 6.699219,1.318359 1.489139,0.07935 2.425726,-1.419368 1.835937,-2.757812 1.984597,-0.530761 0.376165,-2.182605 1.34375,-3.203125 0.121845,-1.532649 1.655446,-2.320177 0.806641,-3.927734 0.02809,-1.870405 2.549265,-1.271925 2.734375,-3.078126 0.921916,-1.448761 1.111785,-4.293802 0.580078,-4.945312 2.650694,1.842719 6.77941,0.675619 8.642578,-2.056641 2.232881,-2.46691 3.142736,-5.85935 3.976562,-9.003906 0.04609,-1.081023 -0.855038,-1.457968 -1.902343,-1.71875 1.29626,2.900176 -1.342004,6.637003 -2.792969,9.208985 -0.57982,1.376753 -4.895186,3.707229 -4.767578,3.128906 4.928001,-1.761057 7.210945,-7.208348 7.623047,-12.054688 l -0.08594,-0.291015 c -0.713263,-0.17597 -1.470203,-0.313339 -2.076172,-0.558594 -0.451172,-0.656766 -0.995356,-1.265505 -1.646484,-1.798828 L 87.880859,45.728516 C 89.32654,40.308113 92.04864,32.156193 93.087891,27.433594 93.888572,23.795109 87.029558,15.760302 80.007812,13.707031 77.703828,13.033354 75.258,12.671879 72.796875,12.613281 Z m 19.722656,36.22461 c 0.0079,0.002 0.01556,0.0058 0.02344,0.0078 -0.02157,-0.04825 -0.04067,-0.09676 -0.06445,-0.144531 z m -0.04102,-0.136719 -0.01563,-0.05273 -0.292969,-0.470704 c 0.12046,0.170539 0.220189,0.345745 0.308594,0.523438 z M 74.101562,14.207031 c 1.476413,-0.01314 2.880633,0.388041 4.328126,0.714844 1.079665,0.243782 2.026894,0.48851 2.878906,0.75 2.556005,0.784487 4.250522,1.721061 6.070312,3.251953 2.742533,2.06471 2.471119,4.540582 1.541016,7.728516 l -5.277344,16.447265 c -0.673653,-0.191488 -1.407706,-0.405336 -2.255859,-0.632812 l -4.308594,-1.15625 c 0.0021,-0.01076 0.0095,-0.03383 0.01172,-0.04492 2.363625,-2.76902 4.386104,-7.540656 5.363281,-9.728516 0.58598,-1.310886 1.178291,-2.743759 1.314453,-3.183593 L 84.013673,27.55469 83.957033,26.61133 83.898443,25.667971 83.550781,25.125 c -0.497442,-0.775043 -1.099465,-1.242541 -1.951172,-1.527344 0.416063,0.371955 0.508146,0.591595 0.613282,0.792969 0,0 -0.640408,0.139358 -0.960938,0.208984 -2.187751,0.359526 -4.590003,0.550894 -6.637447,0.544482 -5.43362,-0.329785 -10.720816,-2.021484 -14.921142,-3.49175 -2.222106,-0.777817 -5.175113,-1.377893 -4.623047,-2.63086 0.515404,-1.169758 1.775837,-1.159376 4.101563,-0.673828 l 1.960937,0.410156 1.705079,-0.917968 c 3.079628,-1.658899 6.764484,-3.627002 10.626953,-3.59961 0.214243,-0.02018 0.425806,-0.03132 0.636718,-0.0332 z m -13.591796,9.335938 c 7.054179,2.706976 14.771675,3.539837 20.552734,2.355469 1.326635,-0.290076 1.298957,-0.295964 1.435547,0.333984 l 0.107422,0.492187 -0.117188,0.886719 c -0.06432,0.488027 -0.174317,1.027138 -0.24414,1.199219 L 82.117188,29.125 c -1.567885,0.344506 -4.098482,1.200898 -8.824219,1.330078 -4.585617,0.12535 -11.524862,-1.517354 -13.685547,-2.646484 l -0.300781,-0.158203 0.554687,-2.048829 c 0.306009,-1.127346 0.65188,-2.008027 0.648438,-2.058593 z M 51.71875,35.253906 c 0.173094,-0.09885 9.118179,1.020393 13.517578,1.691406 l 0.63086,0.0957 c -0.413812,0.424129 -0.803483,0.910399 -1.199219,1.46875 -2.852044,-0.337011 -9.689292,-1.139342 -13.515625,-1.515625 -0.03954,-0.399116 0.331135,-1.605861 0.566406,-1.740235 z m -1.259766,3.148438 c 0.326833,-0.03268 1.419314,0.06807 2.820313,0.224609 l 0.994141,0.126953 c 1.460211,0.188309 2.726852,0.364979 2.814453,0.392578 0.08764,0.0276 2.284276,0.323806 4.880859,0.65625 4.78578,0.612723 5.202042,0.696865 8.513672,1.732422 1.022591,0.319757 1.93074,0.593997 2.017578,0.609375 0.08684,0.01539 1.429161,0.408263 2.982422,0.873047 1.553239,0.464781 4.694897,1.462329 7.017578,2.091797 4.295935,1.164231 5.533484,1.459625 5.353516,4.113281 -0.850434,3.301931 -1.711659,7.34159 -4.416016,8.861328 -2.710842,1.523379 -4.854783,1.187593 -8.648438,-0.07227 -4.644903,-1.542559 -7.090188,-2.698105 -7.849609,0.544922 -1.909133,8.152801 -3.02531,11.580443 -4.396484,19.27539 -1.961003,10.684699 -1.161338,20.276067 -2.972657,29.728514 -0.869506,3.79227 -5.60353,6.412 -9.029296,4.08007 -3.385616,-2.08773 -3.321677,-6.38607 -3.15625,-9.90429 0.614787,-13.074454 1.717909,-26.538213 5.308593,-38.146481 1.636371,-6.472014 3.539916,-12.896882 5.59961,-19.166016 -0.978369,-1.918712 -5.549678,-1.566025 -7.613281,-3.164062 -0.69184,-0.682349 -0.600098,-2.04501 -0.220704,-2.857422 z m 11.972657,8.111328 c -3.815385,0.350365 -4.099743,4.840203 -5.183594,7.646484 -4.561925,14.87087 -7.462309,30.611787 -7.884766,44.949219 0.06889,3.055475 -1.251334,6.734285 1.177735,9.205075 3.739667,3.18301 6.470607,-0.37197 6.740234,-5.60351 0.298932,-5.800425 0.185036,-11.79969 1.283203,-17.626956 1.132157,-6.007523 1.73728,-12.099419 3.431641,-17.996093 1.450252,-5.047171 2.692164,-10.116261 4.058594,-15.134766 0.630498,-2.315638 -0.896044,-5.605741 -3.623047,-5.439453 z m 0.138671,1.3125 c 4.130517,0.498073 2.747929,4.966476 1.964844,7.519531 -1.579185,5.148538 -2.79746,10.316245 -4.072265,15.505859 -0.601388,2.448198 -0.79743,4.966549 -1.365235,7.589844 -1.452023,6.708333 -2.029214,13.065307 -2.224609,19.40625 -0.0462,1.499181 0.579429,6.469354 -0.835938,5.841794 -2.780075,-3.772678 -6.668261,1.90205 -4.458984,4.75977 -2.696526,-2.38206 -0.815386,-6.40419 -0.982422,-9.544923 0.312902,-10.121115 2.230676,-19.616363 3.9375,-28.861328 0.395657,-2.77805 1.675947,-6.149403 2.410156,-9.15625 1.215278,-4.124652 1.971713,-6.903323 3.095703,-10.882813 0.280308,-0.992426 1.355706,-2.319485 2.53125,-2.177734 z m 9.947266,11.18164 c 2.684734,0.570767 7.025601,1.858056 7.847656,3.732422 -1.686143,-1.120912 -5.577262,-2.655259 -6.384765,-2.25 1.746516,1.086956 0.710303,3.476863 -1.119141,3.408204 -1.076213,0.460934 3.176768,1.093261 4.232422,1.763671 1.83593,0.645525 2.388519,1.24841 0.21875,0.304688 -2.251148,-1.444443 -7.819693,-0.514548 -5.494141,-4.376953 0.231248,-0.861094 0.464295,-1.721933 0.699219,-2.582032 z m -1.273437,7.34961 c 1.61293,0.600544 6.199648,0.985825 5.992187,2.345703 -1.712517,-0.799068 -5.47104,-0.963956 -5.992187,-2.345703 z M 70.224609,68.5 c 2.185276,0.934182 5.852932,0.91135 7.177735,2.683594 -2.454557,-0.427264 -4.932713,-1.356478 -7.345703,-2.154297 0.09424,-0.110889 -0.03683,-0.523054 0.167968,-0.529297 z m -0.501953,2.292969 c 2.273438,0.68189 4.60705,1.243076 6.773438,2.21289 -1.99927,0.342635 -5.438983,-0.775835 -6.90625,-2.048828 l 0.117187,-0.146484 z m -0.49414,2.253906 c 1.689422,0.854912 6.570723,1.199887 6.617187,2.578125 -1.683679,-0.617017 -6.596252,-0.891646 -6.617187,-2.578125 z m -0.828125,2.423828 c 1.854208,0.857696 6.159616,0.962656 6.457031,2.539063 -1.600244,-0.71432 -6.41959,-0.858417 -6.457031,-2.539063 z"
         sodipodi:nodetypes="cccccssccccscccsssccccccccsscscccccccccccccccccsccccccccccccccccccccccccccccccsscccccccccccsccccsccccsccccssssscssscccccccccccccssscssscccccccsscccccccccccccccccccccccccccccc" /><path
         style="fill:#d40000;fill-opacity:1;stroke-width:0.0773208;stroke-linecap:square;paint-order:markers fill stroke;stop-color:#000000"
         d="m 66.345828,38.784788 c 2.137105,0.364871 6.391518,1.451285 9.007451,2.157223 0.523236,-0.571687 1.616639,-1.721648 2.673404,-3.774271 0.382176,-0.74235 0.295481,-0.718752 -0.370791,-0.899784 -4.977106,-1.164067 -9.881,-0.700671 -11.310064,2.516832 z"
         id="path3993-6"
         sodipodi:nodetypes="ccscc" /><g
         id="g1668-7-4"
         transform="matrix(0.10181912,-0.00122642,0.00122642,0.10181912,-77.795132,160.65341)"><path
           id="path1660-5-9"
           style="opacity:1;fill:#ffffff;stroke-width:0.6;stroke-linecap:square;paint-order:markers fill stroke;stop-color:#000000"
           d="m 1680.8945,-1148.8008 c -3.6233,1.0686 -7.2456,2.141 -10.8691,3.209 -3.1878,2.8063 -6.5849,5.4136 -9.3142,8.6952 -1.8722,2.1106 -3.4711,4.4442 -4.8232,6.9184 -0.5521,1.0026 -1.2248,1.9689 -1.7023,2.9941 -0.3088,5.3352 -0.6187,10.6703 -0.9259,16.0056 1.7411,6.2248 3.6576,12.4026 5.2378,18.6711 0.7326,3.0301 1.2524,6.3559 -0.086,9.3019 -1.6553,3.73 -4.2483,6.9308 -6.5204,10.2911 -3.4763,5.0948 -6.4943,10.4986 -9.0397,16.1164 -0.6001,1.335 -1.3162,2.6443 -1.8457,3.9949 v 16.8668 c 1.9123,3.4129 3.6855,6.9177 6.0004,10.085 1.7623,2.5138 3.6088,4.9689 5.5386,7.3564 -3.1849,-2.2469 -6.3183,-4.5654 -9.4492,-6.8867 -2.3296,0.5847 -4.6586,1.1714 -6.9883,1.7558 -0.826,2.7449 -2.0761,5.4222 -2.1777,8.3301 -3.0984,-2.0568 -6.9464,-2.974 -10.6289,-2.3594 -3.2004,0.4401 -6.0503,2.0504 -8.8028,3.6418 -0.6662,0.4184 -1.4522,0.722 -2.0469,1.2093 -1.7311,3.6598 -4.0432,7.1626 -4.7009,11.226 -0.5073,2.71629 0.2882,5.71383 2.3911,7.57801 2.5929,2.74187 4.8434,5.78764 7.1941,8.73581 5.1654,6.74895 10.3015,13.52142 15.5896,20.1752 4.6493,5.89613 9.4602,11.66192 14.2078,17.47882 3.6663,1.75232 7.2549,3.96866 11.3767,4.426 3.8083,0.49762 7.8478,-0.3485 11.023,-2.53935 2.4661,-1.84625 4.5294,-4.54439 4.9402,-7.66399 0.2582,-1.14304 -0.4778,-2.26989 -1.0157,-3.10938 2.6573,1.17128 5.745,2.04448 8.5751,0.93897 1.5687,-0.60455 2.9931,-1.51898 4.4894,-2.27686 -0.1382,-3.03891 0.2323,-6.16028 -0.653,-9.11691 -1.207,-3.80592 -3.4064,-7.18679 -5.3974,-10.61545 -2.2513,-3.73276 -4.524,-7.45375 -6.6606,-11.25396 6.0068,5.94786 12.001,12.02784 17.9981,18.03125 5.3882,2.79286 10.7379,5.71379 16.4656,7.7686 11.0716,4.14059 23.072,5.6823 34.8381,4.62817 9.9848,-0.8336 19.7447,-3.41468 29.1344,-6.84135 12.8305,-4.54049 25.7312,-8.88153 38.5547,-13.43907 9.6967,-3.56194 19.3817,-7.301 28.4454,-12.29749 4.7819,-2.70793 9.5618,-5.74862 13.013,-10.10792 2.3061,-2.8992 3.6565,-6.6925 3.0445,-10.4096 -0.1555,-1.0991 -0.3113,-2.1982 -0.4664,-3.2974 -3.0368,-1.4798 -6.0719,-2.963 -9.1074,-4.4453 -8.0906,-0.3231 -16.1837,-0.691 -24.2729,-0.9823 -8.2136,1.1798 -16.4507,2.229 -24.5943,3.8416 -1.1899,0.2357 -2.3817,0.4613 -3.5703,0.7031 1.6772,-0.617 3.3667,-1.1833 4.959,-1.7128 7.3876,-2.4224 15.1035,-4.32 22.6855,-5.5567 2.8723,-0.4581 5.6118,-0.8411 8.5164,-1.1398 5.9447,-0.6377 12.1109,-0.9027 18.1656,-0.8931 4.3733,-0.071 8.8024,0.065 13.1071,-0.8323 2.4027,-0.4993 4.8109,-1.862 5.7853,-4.2209 1.0893,-2.5734 0.986,-5.4444 0.9685,-8.1838 -0.1244,-3.7074 -2.0472,-7.2737 -5.073,-9.4184 -4.0861,-2.9523 -9.2357,-3.8667 -14.1653,-4.1744 -8.944,-0.4321 -17.8556,1.1347 -26.4991,3.3079 -15.4902,4.0274 -30.3223,10.3773 -44.2575,18.2106 -5.2873,2.9517 -10.3631,6.2579 -15.4386,9.5552 -0.5779,-0.4629 0.4165,-0.9366 0.6179,-1.4048 3.2878,-4.4008 7.7948,-7.6592 12.2668,-10.7559 8.6523,-5.8476 17.9815,-10.7941 27.3477,-15.2612 6.453,-3.0827 13.0707,-5.7978 19.7011,-8.4696 7.1216,-3.0219 14.2765,-6.2002 20.55,-10.7906 3.8262,-2.8452 7.3717,-6.5676 8.5286,-11.3276 0.7386,-3.0442 0.73,-6.5753 -1.2914,-9.1505 -2.2782,-2.9291 -6.097,-4.0042 -9.6364,-4.3675 -6.2055,-0.5894 -12.4323,0.4359 -18.4818,1.7566 -12.0795,2.7735 -23.7119,7.2392 -34.9347,12.4504 -15.4541,7.2375 -30.1807,16.1102 -43.4925,26.8097 -0.6724,0.5277 -1.3448,1.0555 -2.0171,1.5832 -0.735,-0.3753 -0.2218,-0.9107 0.086,-1.4196 1.1565,-2.0682 2.3949,-4.1117 4.0688,-5.8095 4.697,-4.9226 10.2766,-8.8919 15.8978,-12.6811 3.4013,-2.2693 6.8376,-4.3811 10.3929,-6.4808 12.3671,-7.222 25.3979,-13.6213 38.6876,-19.1344 4.5241,-1.9267 9.1888,-3.6954 13.2481,-6.5234 1.8087,-1.2958 3.5979,-3.2503 3.3681,-5.6406 -0.2586,-2.5922 -2.4268,-4.4032 -4.384,-5.8569 -1.9395,-1.3982 -4.0124,-2.5965 -6.0231,-3.8873 -6.9694,0.2618 -13.9387,0.5242 -20.9082,0.7813 -6.863,2.382 -13.8258,4.5096 -20.4967,7.4077 -13.2987,5.6936 -26.0714,12.5638 -38.4201,20.0845 -7.1148,4.3534 -14.0295,9.0323 -21.2239,13.2558 -1.3815,0.496 -1.6616,2.1635 -1.3622,3.4391 0.8404,4.0738 2.7625,7.8087 4.2806,11.6536 0.306,0.7477 0.7359,1.4708 0.5847,2.3093 l -0.081,26.1176 c 3.8465,2.0115 7.6915,4.0259 11.5371,6.039 0.5384,0.6472 1.0769,1.2943 1.6153,1.9414 -5.8669,-2.9277 -12.1568,-4.9747 -18.6027,-6.1596 -1.8989,-0.3651 -3.7976,-0.8404 -5.6966,-1.1393 -6.2492,1.2637 -12.5737,2.2671 -18.65,4.2512 -0.8073,0.2663 -1.6161,0.5297 -2.414,0.8231 2.1804,-2.2759 4.9128,-3.9137 7.7568,-5.2221 1.0055,-0.4669 1.9823,-1.0556 3.0053,-1.4478 h 15.4254 c 1.3715,-3.022 2.7411,-6.0449 4.1094,-9.0684 v -17.8965 c -1.7438,-3.4008 -3.1777,-6.9861 -5.418,-10.1074 -3.2133,-4.7053 -6.9785,-9.0005 -10.9342,-13.0911 -1.3826,-1.4696 -2.7652,-2.9392 -4.1478,-4.4089 -0.1068,-1.1839 0.1232,-2.3444 0.5383,-3.4505 1.5861,-4.846 4.1882,-9.2776 5.8622,-14.0912 1.7403,-4.6337 2.5343,-9.578 2.5816,-14.5178 0.038,-3.4819 0.01,-6.9643 0.018,-10.4463 -1.9147,-3.655 -3.4176,-7.5987 -6.1377,-10.7634 -3.4391,-4.1867 -8.4568,-7.1032 -13.8703,-7.7049 -1.4235,-0.1837 -2.8547,-0.4874 -4.2735,-0.5973 -0.11,0.032 -0.2199,0.064 -0.3299,0.097 z"
           sodipodi:nodetypes="sccccccccccccccccccccccccccccccccccccccccccccscccccccccccccccccccccccccccccccccccccccccccccccccccccccccccccccss" /><path
           id="path1597-8-1"
           style="fill:#000000"
           d="m 1695.0098,-1162.2559 -10.5,0.031 -10.5,0.033 -5.7813,2.3008 c -24.239,9.6507 -34.2106,35.9857 -24.6504,65.1074 l 1.9805,6.0313 -1.5723,3.041 c -0.8647,1.6722 -3.5585,6.1103 -5.9863,9.8633 -7.783,12.0313 -11.4476,23.5591 -11.4746,36.0918 l -0.018,7.5 -4.748,0.2988 c -12.1724,0.7682 -22.2085,9.4436 -26.7246,23.1016 l -1.7852,5.4023 0.059,7.59768 0.059,7.59961 2.0469,6 c 2.7698,8.11984 3.0535,7.38135 -5.6543,14.71289 -42.9606,36.17087 -92.8413,39.33784 -113.8789,7.23047 l -0.7344,-1.12109 c -5.1113,18.01528 -9.8357,36.41667 -14.293,55.08593 l 6.2129,4.16797 c 12.296,8.24529 24.9678,13.85826 38.6699,17.12696 l 7.2735,1.73437 12,-0.0469 12,-0.0488 8.9746,-2.20703 c 26.0604,-6.4042 55.1461,-22.32094 78.1758,-42.78321 8.2173,-7.30119 7.6175,-7.13881 14.2168,-3.82422 2.7673,1.3899 8.0435,3.26934 11.7246,4.17774 l 6.6933,1.65234 6.3731,-1.09179 c 8.3773,-1.435 18.0203,-6.03271 22.3574,-10.65821 1.9163,-2.0438 5.8832,-5.31378 8.8144,-7.26758 l 5.3282,-3.55273 7.6718,2.50781 c 11.9717,3.915 18.8279,5.06489 30.17,5.05469 l 10.5,-0.01 8.6269,-2.20312 c 9.9597,-2.5444 71.5191,-23.72037 80.2383,-27.60156 19.2648,-8.57531 32.0231,-21.24851 37.2852,-37.03512 0.9166,-2.75 2.702,-6.575 3.9687,-8.5 3.687,-5.6035 5.3834,-11.7324 5.3594,-19.375 l -0.022,-7.125 -2.0332,-4.5 c -2.513,-5.5632 -8.1343,-11.5118 -13.4238,-14.2071 -2.2,-1.121 -4.1477,-2.1693 -4.3282,-2.3281 -0.1806,-0.1588 0.8319,-3.5042 2.25,-7.4356 6.0242,-16.7007 -2.4069,-32.6077 -18.4218,-34.7558 -2.1998,-0.2951 -4,-0.9102 -4,-1.3672 0,-3.1465 -4.6434,-12.1603 -8.0215,-15.5723 l -4.0274,-4.0683 -6.4961,-2.1328 -6.498,-2.1328 h -6.5703 c -21.6447,0 -60.4416,14.9011 -88.0078,33.8027 -9.1665,6.2852 -9.4133,6.1384 -5.752,-3.4336 l 2.6289,-6.8691 0.5,-9.6328 0.5,-9.6309 -1.2636,-5.3692 c -2.8178,-11.9571 -9.5489,-21.0319 -19.4317,-26.1992 z m -12.5489,15.3731 4.5313,0.6797 c 6.243,0.9362 11.6987,5.1728 14.8789,11.5547 l 2.6348,5.2871 v 8.1445 c 0,8.9442 -1.1547,13.593 -5.8692,23.625 -1.7219,3.664 -3.1308,7.6501 -3.1308,8.8594 v 2.1992 l 7.4316,7.9004 c 4.1039,4.3624 8.6935,10.4688 10.25,13.6387 l 2.8184,5.7402 v 8.5 8.5 l -1.6993,3.75 -1.6992,3.75 h -7.3535 -7.3555 l -5.1152,2.5488 c -4.3715,2.1785 -7.9352,5.5653 -10.5547,10.0332 -0.3491,0.5956 1.5119,0.056 4.1348,-1.1992 2.6229,-1.2553 8.7573,-3.0655 13.6328,-4.0234 l 8.8652,-1.7422 7.75,1.6035 c 9.4621,1.9565 20.3433,7.0565 24.0645,11.2793 3.999,4.5379 1.4565,0.1551 -3.0547,-5.2656 l -4.8828,-5.8672 -5.4082,-2.8321 -5.4063,-2.83 0.041,-13.1016 0.041,-13.1035 -2.8985,-6.9512 c -1.6721,-4.0092 -2.4676,-7.0928 -1.8789,-7.289 0.5614,-0.1872 7.7155,-4.6375 15.8985,-9.8887 18.1608,-11.6541 39.0528,-22.2937 53.2558,-27.1231 l 10.6231,-3.6132 10,-0.3731 10,-0.375 3.2011,2.0117 c 9.4394,5.933 7.8039,8.8645 -8.7343,15.6524 -32.57,13.3679 -63.3339,32.3951 -69.5625,43.0234 l -2.6817,4.5762 1.4082,1.4082 1.4082,1.4082 5.7715,-4.5313 c 40.4522,-31.7495 102.6895,-50.5022 102.6895,-30.9414 0,9.2916 -8.7203,16.2306 -32.0997,25.545 -24.9085,9.9235 -48.3185,23.5672 -55.2187,32.1796 l -2.9805,3.7168 1.2188,1.4688 1.2168,1.4668 6.7246,-4.3496 c 44.4643,-28.7639 97.1387,-36.8711 97.1387,-14.9512 0,9.5989 -1.4533,10.3956 -19,10.418 -21.9943,0.028 -41.6687,4.0395 -62.3008,12.705 -13.336,5.6012 -13.183,5.8789 1.3047,2.3458 6.3226,-1.5419 17.0416,-3.5913 23.8203,-4.5547 l 12.3261,-1.752 11.7852,0.4844 11.7871,0.4863 3.8887,1.8985 3.8887,1.8984 0.332,2.3457 c 1.5102,10.6671 -13.0091,20.20531 -50.332,33.0664 -12.65,4.35904 -27.6821,9.58689 -33.4043,11.61719 -26.2701,9.32049 -48.8356,8.39747 -70.5957,-2.88672 l -6,-3.11133 -12.711,-12.76562 c -6.9907,-7.0211 -12.9462,-12.76563 -13.2363,-12.76563 -0.6557,0 4.3175,9.27376 9.8105,18.29102 6.53,10.71942 7.5369,12.96493 7.5879,16.92383 l 0.049,3.71484 -1.9336,1.03516 c -3.0246,1.6187 -5.353,1.25253 -11.3828,-1.78906 l -5.5977,-2.82227 3.457,3.82617 c 1.9014,2.1047 3.4571,4.25289 3.4571,4.77539 0,2.5691 -2.6151,6.1086 -5.5391,7.4961 -4.4865,2.12899 -9.1713,1.93766 -14.2617,-0.58204 l -4.2989,-2.12695 -8.2949,-10.12109 c -4.5617,-5.5664 -12.3639,-15.52111 -17.3398,-22.1211 -4.9759,-6.59998 -9.9964,-12.85654 -11.1563,-13.90429 -2.7156,-2.45275 -2.6721,-6.0562 0.1407,-11.6289 l 2.25,-4.459 4,-2.2363 c 4.9658,-2.778 10.0004,-2.8729 14.2734,-0.2676 3.9802,2.4267 4.6284,2.4853 3.8066,0.3437 -0.3488,-0.9089 -0.137,-3.1587 0.4707,-5 l 1.1055,-3.3476 2.502,-0.6289 2.5019,-0.6289 3.0078,2.2246 c 7.328,5.4178 15.8321,11.1439 15.8321,10.6601 0,-0.2906 -2.8873,-3.9873 -6.4161,-8.2148 -3.5288,-4.2275 -7.6913,-9.987 -9.25,-12.7988 l -2.8339,-5.1133 v -8 -8 l 3.1933,-6.7422 c 1.7565,-3.708 5.1881,-9.558 7.625,-13 8.9051,-12.5778 8.9698,-12.9794 4.5664,-28.3398 l -3.1152,-10.8672 0.4414,-7.6426 0.4434,-7.6426 2.666,-4.5488 c 1.4664,-2.5022 4.8055,-6.3969 7.4218,-8.6543 l 4.7579,-4.1035 5.2285,-1.5449 z"
           sodipodi:nodetypes="ccccccsscccccccsssccccccccssccsscccsccssscccsssssccccsscccccccsscsssccscccccccssssccssccccccssccccsssccccsscccccssssscccccsscsccssccsccssscccsscccsscccccsscccccsscccsccccs" /></g><g
         id="g1668-7-4-4"
         transform="matrix(0.10182228,9.2790888e-4,-9.2790888e-4,0.10182228,-79.813543,158.03174)"><path
           id="path1660-5-9-8"
           style="opacity:1;fill:#ffffff;stroke-width:0.6;stroke-linecap:square;paint-order:markers fill stroke;stop-color:#000000"
           d="m 1129.7031,-1162.959 c -6.0924,0.061 -11.9645,2.9363 -16.0722,7.3789 -2.8576,2.9912 -4.8548,6.6661 -6.4722,10.4432 -0.6199,1.426 -1.3564,2.8274 -1.9059,4.2681 0.062,5.3388 0.043,10.6896 0.1499,16.0209 1.2442,4.0261 2.5117,8.0449 3.7379,12.0764 0.4375,1.4874 0.9247,3.1905 1.3343,4.7758 0.4275,1.8772 1.1055,3.7483 1.0271,5.6969 -3.7998,2.1517 -7.7395,4.1334 -11.0955,6.9672 -5.7018,4.6585 -10.4359,10.578 -13.3595,17.3601 -0.6527,1.4599 -1.4178,2.8958 -2.0021,4.3703 -0.011,5.94 -0.024,11.88 -0.039,17.82 1.8805,3.7316 3.7562,7.4656 5.6367,11.1972 4.166,0.9837 8.3732,1.4989 12.2299,3.4748 3.6315,1.7864 6.8655,4.419 9.2388,7.7069 0.1359,0.1858 0.5641,0.8037 0.7924,1.1771 0.459,0.7304 0.8644,1.4924 1.2486,2.2643 -5.2602,-2.4602 -10.3825,-5.2271 -15.6022,-7.7562 -6.9437,-1.2126 -13.882,-3.037 -20.9871,-2.7336 -2.637,0.095 -5.2656,0.4884 -7.8052,1.2085 3.2572,-2.0609 6.7804,-3.68 10.457,-4.834 1.2978,-0.5649 2.8123,-0.8639 3.8424,-1.8827 0.3167,-0.5096 0.7264,-1.0054 0.4168,-1.622 -0.9384,-4.2461 -2.0935,-8.4412 -3.1498,-12.6593 0.524,-4.0933 1.0063,-8.2211 2.3017,-12.1592 1.4214,-4.6113 3.5356,-9.0107 6.3408,-12.9417 0.8685,-1.4185 1.9353,-2.7942 2.3653,-4.4187 0.1832,-0.6149 -0.1214,-1.2686 -0.4094,-1.78 -3.8968,-2.4813 -7.9593,-4.6938 -11.9367,-7.0431 -14.0136,-8.0388 -27.9785,-16.2597 -42.8132,-22.7212 -8.435,-3.6521 -17.1259,-6.9475 -26.2266,-8.4688 -5.3306,-0.8247 -11.01057,-1.088 -16.09853,0.9969 -3.00032,1.2037 -5.51497,3.4569 -7.14388,6.2393 -0.70587,1.0767 -1.41175,2.1534 -2.11775,3.2301 1.5382,1.3494 2.91997,2.9291 4.79687,3.8261 3.65614,2.0045 7.62994,3.3367 11.29809,5.3197 9.0752,4.702 17.7284,10.1632 26.3757,15.5983 8.4061,5.4318 16.7345,11.0794 24.1652,17.8136 3.0874,2.8902 6.1752,5.9483 8.1256,9.7495 0.8518,1.6934 1.4284,3.9429 0.1506,5.5814 -5.3517,-5.0465 -10.7298,-10.0773 -16.5003,-14.648 -12.1907,-9.7295 -25.4777,-18.1907 -39.8086,-24.4045 -8.17252,-3.4634 -16.73954,-6.3138 -25.63068,-7.0673 -5.36963,-0.3973 -11.08773,0.019 -15.80279,2.8534 -1.97776,1.1746 -3.53162,2.8997 -5.25563,4.3953 0.0111,3.1965 -0.20969,6.4878 0.90061,9.5502 1.72664,5.1627 5.80078,9.0938 10.04966,12.2902 8.83738,6.5584 19.0024,10.9299 28.71629,15.9802 6.28994,3.2587 12.46484,6.6396 18.51904,10.3598 5.0163,3.1103 10.0572,6.4213 14.5305,10.3763 2.0512,1.7967 3.8821,3.8502 5.2742,6.2029 0.1272,0.5399 -0.2543,1.1654 -0.3243,1.7385 0.015,0.8624 -0.5457,0.6652 -1.0761,0.2931 -3.7111,-2.0717 -7.0535,-4.7295 -10.6777,-6.9439 -10.4824,-6.5963 -21.6204,-12.1696 -33.21927,-16.5178 -6.41049,-2.3895 -13.01254,-4.3404 -19.79816,-5.3054 -1.57968,-0.2387 -3.16034,-0.5661 -4.73938,-0.751 -5.18389,0.9669 -10.52766,1.4992 -15.4106,3.6239 -4.4357,1.8611 -8.72005,4.8983 -10.69037,9.4329 -1.62355,3.6285 -1.13542,7.9353 0.795,11.3463 0.93165,1.9334 2.53345,3.5976 4.63105,4.2184 3.58964,1.0939 7.38808,1.0729 11.07244,1.6552 3.354,0.4574 6.66419,1.0436 9.93237,1.6941 11.84773,2.4122 23.59154,5.7469 35.01972,9.8624 4.5373,1.648 9.027,3.4352 13.411,5.4582 -12.7657,-3.3486 -25.83976,-5.564 -39.00664,-6.4955 -7.00474,-0.4231 -14.10071,-0.629 -21.0406,0.5953 -3.59951,0.6369 -7.25421,2.1155 -9.57526,5.059 -2.4446,2.9719 -2.88366,7.1864 -1.74272,10.7826 1.70112,5.4821 5.92357,9.81329 10.6377,12.89334 4.13413,2.70915 8.87615,4.25267 13.48898,5.92741 12.53444,4.28536 25.31152,7.82781 38.15384,11.0576 10.3421,2.56442 20.7573,4.90649 31.3192,6.37491 2.1614,0.29664 4.3183,0.71741 6.4825,0.93869 6.5909,-0.56582 13.25,-0.85391 19.6958,-2.46223 10.5662,-2.46145 20.1888,-7.80146 29.0995,-13.84668 6.4326,-4.35223 12.5981,-9.08427 18.6752,-13.91625 -4.7381,6.97292 -9.6667,13.8138 -14.5,20.72071 v 8.59179 c 1.6886,1.16601 3.2338,2.70513 5.3242,3.10157 2.7694,0.63931 5.6468,0.64867 8.4668,0.41601 -1.2585,0.86282 -2.6059,1.6263 -3.791,2.57813 -1.0612,1.01766 -0.677,2.72873 0.211,3.73632 2.0297,2.3771 4.6791,4.16564 7.4363,5.59795 1.9409,0.91377 4.0063,1.52784 6.0031,2.30635 3.0223,-0.37203 6.1191,-0.44766 9.0146,-1.48842 2.861,-0.94277 5.7356,-2.10803 8.0036,-4.14968 5.927,-4.99697 11.4563,-10.44265 16.9854,-15.87125 8.2575,-8.25026 16.3911,-16.62375 24.5941,-24.92815 0.8074,-3.00012 1.614,-6.00052 2.4238,-9.00002 -0.9021,-2.7947 -1.4326,-5.7996 -3.2154,-8.2132 -2.5772,-3.6925 -6.6233,-6.4566 -11.1353,-7.0444 -0.9672,-0.145 -1.9506,-0.4393 -2.9076,-0.491 -1.8769,0.7807 -3.7478,1.5756 -5.6304,2.3424 -0.2139,-2.9597 -0.064,-6.1391 -1.5742,-8.8047 -0.9487,-1.656 -3.0309,-2.4122 -4.8457,-1.9043 -3.1675,0.8276 -5.6966,3.05 -8.3133,4.9018 -0.5953,0.4666 0.4644,-0.6481 0.6262,-0.8959 3.7627,-4.3213 7.2981,-8.8892 10.0699,-13.918 1.0752,-2.1784 2.102,-4.3807 3.1543,-6.5703 -0.01,-5.961 -0.017,-11.9219 -0.021,-17.8828 -3.3222,-7.4516 -6.9008,-14.8204 -9.4454,-22.5868 -0.3789,-1.3305 -0.8961,-2.6554 -1.189,-3.9893 0.6007,-2.5709 1.0753,-5.1745 1.8649,-7.6974 0.1247,-0.378 0.3613,-1.145 0.5288,-1.672 1.5419,-4.7713 3.3538,-9.4337 5.2533,-14.0269 0.965,-2.4375 2.0297,-4.8559 2.9327,-7.3054 v -17.7789 c -2.2277,-4.2059 -4.1825,-8.6292 -7.316,-12.269 -4.3549,-5.3 -10.6455,-9.2626 -17.5747,-9.8606 -0.7757,-0.072 -1.5551,-0.097 -2.3339,-0.087 z"
           sodipodi:nodetypes="scccccccccccccccccccccccccccccccccccccccccccccccccccccccccccccccccccccccccccccccccccccccccccccccccccccccccccccss" /><path
           id="path1597-8-1-6"
           style="fill:#000000"
           d="m 1128.8047,-1177.7773 c -25.1511,0.6273 -42.6114,27.2778 -35.7949,59.455 1.9713,9.3053 0.9602,9.1381 -21.5039,-3.5508 -21.1531,-11.9483 -45.9801,-21.2016 -61.5469,-22.9375 l -9.5528,-1.0644 -5.5136,1.1445 c -12.062,2.5041 -18.8588,7.3968 -23.0781,16.6133 l -2.3575,5.1504 -3.6699,0.6875 c -8.5247,1.5992 -16.0622,7.2049 -20.1797,15.0098 l -2.1015,3.9863 v 7.2539 7.2539 l 2,5.2617 c 2.6897,7.0768 2.7987,6.7899 -4.1348,10.7598 -7.1594,4.0993 -12.2504,9.8778 -14.9395,16.9551 l -1.9257,5.0664 v 6.8398 c 0,7.7645 1.2299,12.2293 4.6347,16.8184 l 2.3594,3.1797 -1.6035,6.2597 c -3.2158,12.5525 -0.2522,23.14786 9.0605,32.39652 l 5.0489,5.01367 8.5,4.13477 c 13.7895,6.70628 64.9226,20.45772 83.83,22.54492 l 10.3301,1.14062 9.6699,-1.13476 c 5.3191,-0.6241 13.7224,-2.32957 18.6719,-3.78906 4.9494,-1.4594 9.6751,-2.8507 10.502,-3.0918 0.8927,-0.2602 2.2044,0.74882 3.2285,2.48242 0.9487,1.6061 3.7943,5.22136 6.3242,8.03516 l 4.5996,5.11718 7.5059,3.70899 7.5058,3.70898 9.8574,0.55664 9.8594,0.55664 6.9551,10.5 c 11.7949,17.80618 22.8454,27.2476 38.3262,32.7461 l 7.334,2.60547 9.6132,0.43554 9.6133,0.4336 5.8867,-1.69922 c 3.2379,-0.9352 8.9891,-3.32495 12.7813,-5.31055 l 6.8945,-3.61133 8.5137,-8.04882 c 8.2752,-7.8249 22.5733,-25.70304 24.4609,-27.75 4.7772,-5.18053 6.7856,-5.76217 12.118,-9.00097 13.0368,-23.98495 16.0653,-58.81181 22.8044,-82.36741 l -12.1528,1.2082 c -22.278,2.2148 -36.105,21.2331 -59.3594,51.5508 -14.3047,18.64962 -18.7359,23.14781 -24.5137,24.87891 l -3.9648,1.1875 -3.8282,-1.87891 c -4.5267,-2.2221 -8.4837,-7.73509 -10.7792,-15.01758 l -1.6583,-5.25976 3.5235,-4.90235 c 4.8553,-6.75814 8.4523,-14.96786 9.5722,-21.84961 l 0.9415,-5.793 -1.0196,-6.3828 c -1.2758,-7.9857 -4.8197,-15.0827 -10.0859,-20.1933 l -4.0703,-3.9493 -5.9707,-2.1777 -5.9688,-2.1758 0.6524,-2.0898 c 1.5903,-5.0942 2.4127,-10.535 2.4531,-16.2266 l 0.043,-6.1367 -2.5118,-8.6699 c -1.3817,-4.7681 -3.5765,-10.7804 -4.8769,-13.3613 -1.3005,-2.5809 -2.6942,-6.2125 -3.0957,-8.0684 l -0.7285,-3.373 4.1113,-8.6543 c 15.2054,-31.9963 3.5279,-63.7304 -26.3984,-71.7364 -3.8586,-1.0322 -7.6082,-1.4744 -11.2012,-1.3847 z m 2.7324,16.8203 h 0.01 c 8.1244,0.193 16.4349,5.406 21.7129,15.5644 l 2.6679,5.1387 v 8.5 8.5 l -4.1035,10.084 c -2.2569,5.5463 -4.6567,12.561 -5.334,15.5879 l -1.2324,5.5039 1.5293,4.9121 c 0.8406,2.7018 3.2527,8.7371 5.3613,13.4121 l 3.834,8.5 0.01,8.5 0.012,8.5 -2.6289,5.5 c -1.4458,3.025 -5.3684,8.65 -8.7168,12.5 -8.559,9.8412 -7.7129,11.7747 1.9687,4.5 7.6206,-5.726 9.7817,-5.0052 10.1661,3.3926 0.1156,2.5259 0.2676,4.5956 0.3379,4.5996 0.07,0 1.831,-0.7028 3.9121,-1.5723 l 3.7851,-1.582 3.3086,0.6211 c 4.5551,0.8545 9.1132,4.9581 10.4453,9.4043 l 1.1133,3.7148 -1.0703,3.9727 -1.0684,3.97068 -19.2773,19.59375 c -10.6017,10.77661 -21.336,20.78147 -23.8555,22.23437 -2.5196,1.4528 -6.5696,2.85664 -9,3.11914 l -4.4199,0.47852 -4.1094,-1.50977 c -3.7017,-1.35999 -9.3625,-5.95559 -8.3105,-6.74609 0.2314,-0.1739 3.0075,-1.99894 6.1699,-4.05664 6.7472,-4.3901 7.0578,-4.86555 2,-3.06055 -4.9337,1.7607 -13.3793,1.78357 -15.7598,0.043 l -1.8906,-1.38281 v -3.4707 -3.47266 l 9.1973,-13.05664 c 5.0587,-7.1817 9.5085,-13.8856 9.8886,-14.8965 l 0.6915,-1.8379 -4.4375,3.5957 c -29.3185,23.74615 -42.9503,30.82204 -62.4395,32.41604 l -8,0.6543 -10.2051,-1.54883 c -21.5631,-3.27562 -66.1493,-15.72191 -76.0215,-21.2207 -13.1406,-7.31941 -16.5134,-20.20861 -6.5273,-24.94731 9.627,-4.5683 41.8004,-1.8901 67.7187,5.6368 3.8698,1.1238 7.8788,2.2875 8.9102,2.5859 4.3195,1.2496 0.062,-1.7116 -8.752,-6.0859 -17.389,-8.63 -46.7535,-17.1216 -65.8105,-19.0313 -7.4615,-0.7477 -8.6089,-1.2608 -10.3496,-4.6269 -4.644,-8.9806 2.5955,-17.4863 17.0195,-19.9981 l 6.7754,-1.1797 6.7734,1.1192 c 14.7267,2.432 37.7127,12.6545 54.5372,24.2558 8.0901,5.5785 9.1544,5.8294 10.0234,2.3672 l 0.6289,-2.5059 -1.5469,-2.3632 c -4.7131,-7.1861 -21.2474,-17.9615 -46.8171,-30.5098 -22.0876,-10.8396 -29.8613,-18.064 -29.8613,-27.7539 v -3.0118 l 2.25,-2.0488 c 14.0351,-12.7835 58.0077,4.681 92.1406,36.5957 l 6.8887,6.4434 1.3613,-1.8594 c 5.0388,-6.8909 -7.1094,-19.7216 -35.6406,-37.6406 -14.5919,-9.1644 -23.5635,-14.2113 -30,-16.877 -3.025,-1.2528 -6.1319,-2.8535 -6.9043,-3.5586 l -1.4043,-1.2832 1.7324,-2.6425 c 7.7484,-11.8256 32.5488,-6.4108 72.0762,15.7363 8.754,4.9048 27.7926,15.8902 28.3457,16.3554 0.1906,0.1603 -1.0929,2.3846 -2.8535,4.9434 -3.7473,5.4465 -6.6004,13.0606 -7.5352,20.1074 l -0.666,5.0157 1.6035,6.2636 c 0.8825,3.4449 1.6055,6.4152 1.6055,6.6016 0,0.1864 -2.2057,1.0717 -4.9004,1.9668 -5.7673,1.9156 -13.7287,6.9717 -15.1445,9.6172 l -0.9961,1.8633 4.7695,-2.0606 c 6.768,-2.9213 13.4679,-3.3577 23.2715,-1.5156 l 8.5,1.5976 9.75,4.9239 c 10.3306,5.2169 10.853,5.1724 7.8418,-0.6817 -3.4972,-6.799 -10.3795,-11.9048 -18.4082,-13.6582 l -5.1836,-1.1328 -2.4961,-4.9609 -2.4961,-4.959 0.019,-8.5 0.018,-8.5 2.5762,-5.5 c 3.4918,-7.4568 10.3711,-14.7936 17.7559,-18.9375 l 6.125,-3.4375 v -2.1895 c 0,-1.2042 -1.3783,-6.6323 -3.0645,-12.0625 l -3.0664,-9.873 -0.057,-7.6426 -0.059,-7.6445 2.6777,-5.8555 c 4.5394,-9.9251 12.4791,-14.7536 20.6035,-14.5605 z"
           sodipodi:nodetypes="sssccscccccccssccsccscccccssssccccccscccccccccccssccccccccsccccscccscccsscsccccscccscccsssssccccccccsccssssccccccccsccssssssssccssccsscccccsscccssscccsscccccsscccccccccscccccsc" /></g></g></g></svg>
